<svg width="1440" height="900" viewBox="0 0 1440 900" fill="none" xmlns="http://www.w3.org/2000/svg">
    <g style="mix-blend-mode:difference">
        <path d="M100.369 677.399C86.4175 755.573 108.566 890.052 308.77 802.574C559.025 693.226 1271.31 475.269 1112.66 895.056"
              stroke="#F0F0F5" stroke-width="0.719673"/>
        <path d="M897.88 -502.859C1066.72 111.202 -166.154 -244.096 151.692 -151.98C1010.12 96.8021 664.713 661.534 1035.99 946.793"
              stroke="#F0F0F5" stroke-width="0.719673"/>
        <path d="M107.475 643.211C98.2615 738.967 80.9838 855.725 284.695 774.144C553.906 677.201 1230.79 482.549 1089.32 899.024"
              stroke="#F0F0F5" stroke-width="0.719673"/>
        <path d="M116.439 609.816C112.118 723.074 55.4233 822.149 262.481 746.62C550.467 662.238 1191.49 491.509 1067.57 904.272"
              stroke="#F0F0F5" stroke-width="0.719673"/>
        <path d="M124.475 574.624C125.076 705.418 28.8148 786.986 239.365 717.396C546.338 645.382 1151.94 498.385 1045.33 907.595"
              stroke="#F0F0F5" stroke-width="0.719673"/>
        <path d="M134.182 540.382C139.884 688.609 4.09468 752.683 217.989 689.178C543.768 629.689 1113.61 506.937 1024.62 912.231"
              stroke="#F0F0F5" stroke-width="0.719673"/>
        <path d="M142.88 504.407C153.686 670.122 -21.8097 716.908 195.602 659.349C540.441 612.151 1075.02 513.409 1003.35 914.993"
              stroke="#F0F0F5" stroke-width="0.719673"/>
        <path d="M152.031 469.183C167.9 652.48 -47.5362 682.237 173.592 630.458C537.795 595.272 1037.56 520.333 982.895 918.436"
              stroke="#F0F0F5" stroke-width="0.719673"/>
        <path d="M162.693 432.526C183.815 633.291 -71.5058 646.017 153.194 600.163C536.577 577.147 1001.26 526.475 963.889 920.75"
              stroke="#F0F0F5" stroke-width="0.719673"/>
        <path d="M171.866 397.075C198.286 614.969 -96.5593 610.787 131.397 570.912C533.417 560.031 962.466 533.785 942.427 923.594"
              stroke="#F0F0F5" stroke-width="0.719673"/>
        <path d="M183.399 359.416C214.901 595.019 -120.342 574.448 111.594 540.142C533.436 540.795 928.185 538.53 924.791 924.96"
              stroke="#F0F0F5" stroke-width="0.719673"/>
        <path d="M192.738 323.601C229.979 576.373 -145.015 538.871 90.2855 510.711C531.015 523.741 890.615 546.438 904.94 928.444"
              stroke="#F0F0F5" stroke-width="0.719673"/>
        <path d="M204.53 285.483C247.038 555.913 -168.482 502.241 70.7746 479.698C531.343 504.23 856.601 551.36 887.707 929.729"
              stroke="#F0F0F5" stroke-width="0.719673"/>
        <path d="M216.62 250.707C264.784 538.458 -190.895 468.385 52.0008 451.741C531.905 488.171 822.52 560.182 870.899 934.349"
              stroke="#F0F0F5" stroke-width="0.719673"/>
        <path d="M238.646 223.673C292.867 528.414 -202.613 441.691 43.6731 431.181C542.493 479.87 798.445 576.983 864.458 946.525"
              stroke="#F0F0F5" stroke-width="0.719673"/>
        <path d="M263.312 196.888C323.063 519.095 -212.944 416.56 37.2183 411.708C555.767 471.796 777.435 593.82 860.31 959.306"
              stroke="#F0F0F5" stroke-width="0.719673"/>
        <path d="M286.616 168.824C352.024 508.377 -224.423 390.112 29.5448 390.964C567.702 462.468 755.093 609.574 854.903 970.807"
              stroke="#F0F0F5" stroke-width="0.719673"/>
        <path d="M311.464 142.032C382.955 499.077 -234.374 364.747 23.5308 371.481C581.646 454.762 735.059 627.266 852.183 984.371"
              stroke="#F0F0F5" stroke-width="0.719673"/>
        <path d="M334.855 113.883C412.246 488.074 -245.418 338.179 16.2166 350.668C593.8 445.357 713.11 643.156 847.228 995.73"
              stroke="#F0F0F5" stroke-width="0.719673"/>
        <path d="M358.356 87.0022C442.081 478.515 -256.436 312.693 9.09514 331.097C606.564 437.544 692.126 660.885 843.573 1009.11"
              stroke="#F0F0F5" stroke-width="0.719673"/>
        <path d="M383.209 58.7204C473.058 467.213 -265.731 286.015 3.50749 310.188C620.383 427.986 672.147 676.745 840.568 1020.25"
              stroke="#F0F0F5" stroke-width="0.719673"/>
        <path d="M414.401 24.2274C510.07 450.007 -269.471 254.032 3.69999 283.756C640.42 412.43 658.265 686.942 843.414 1025.88"
              stroke="#F0F0F5" stroke-width="0.719673"/>
        <path d="M459.728 -23.5507C561.784 419.612 -258.969 208.31 18.2453 243.817C675.138 383.865 659.449 684.309 861.745 1018.79"
              stroke="#F0F0F5" stroke-width="0.719673"/>
        <path d="M503.403 -70.3279C611.569 389.905 -249.803 163.936 31.2786 205.058C707.881 356.012 658.576 682.355 877.659 1012.03"
              stroke="#F0F0F5" stroke-width="0.719673"/>
        <path d="M548.567 -118.394C663.27 359.167 -239.43 118.14 45.7311 165.02C742.579 327.219 659.936 679.716 896.127 1004.79"
              stroke="#F0F0F5" stroke-width="0.719673"/>
        <path d="M592.219 -166.605C713.534 328.26 -230.562 72.3026 58.6997 124.931C775.837 298.31 659.954 677.07 913.233 997.484"
              stroke="#F0F0F5" stroke-width="0.719673"/>
        <path d="M635.604 -213.849C763.234 297.998 -221.606 27.8154 71.5757 86.0178C808.518 270.092 659.342 675.098 929.348 990.515"
              stroke="#F0F0F5" stroke-width="0.719673"/>
        <path d="M680.504 -262.362C814.892 266.739 -211.463 -18.1012 85.8609 45.8228C843.175 240.945 660.97 672.433 948.022 983.063"
              stroke="#F0F0F5" stroke-width="0.719673"/>
        <path d="M722.722 -308.994C863.937 236.663 -202.766 -62.5699 98.3698 7.04448C875.198 213.067 660.476 670.497 964.269 975.952"
              stroke="#F0F0F5" stroke-width="0.719673"/>
        <path d="M767.431 -357.813C915.539 205.059 -192.814 -108.546 112.519 -33.2465C909.823 183.673 662.299 667.791 983.077 968.355"
              stroke="#F0F0F5" stroke-width="0.719673"/>
        <path d="M810.614 -405.527C965.691 174.539 -184.378 -153.309 125.175 -72.3365C943 155.417 662.778 666.331 1000.52 961.942"
              stroke="#F0F0F5" stroke-width="0.719673"/>
        <path d="M854.901 -454.833C1016.62 142.087 -174.423 -199.237 139.161 -112.77C976.985 125.308 664.05 663.03 1018.4 953.361"
              stroke="#F0F0F5" stroke-width="0.719673"/>
    </g>
</svg>
