<svg viewBox="0 0 24 24" fill="#B4B4DB" xmlns="http://www.w3.org/2000/svg">
    <path d="M6.40939 5.49019C6.15555 5.23634 5.74399 5.23634 5.49015 5.49019C5.23631 5.74403 5.23631 6.15558 5.49015 6.40942L11.0808 12L5.59061 17.4902C5.33677 17.744 5.33677 18.1556 5.59061 18.4094C5.84445 18.6633 6.25601 18.6633 6.50985 18.4094L12 12.9193L17.4901 18.4094C17.744 18.6633 18.1555 18.6633 18.4094 18.4094C18.6632 18.1556 18.6632 17.744 18.4094 17.4902L12.9192 12L18.5099 6.40942C18.7637 6.15558 18.7637 5.74403 18.5099 5.49019C18.256 5.23634 17.8445 5.23634 17.5906 5.49019L12 11.0808L6.40939 5.49019Z"
          />
</svg>
