<svg width="470" height="470" viewBox="0 0 470 470" fill="none" xmlns="http://www.w3.org/2000/svg">
<path d="M83.5066 285.609C71.2218 297.635 69.1603 316.241 71.7491 332.537C71.8158 332.907 72.3883 332.806 72.3883 332.459C72.3883 328.749 72.2764 325.073 72.2877 321.408C72.3545 321.239 72.4108 321.082 72.4785 320.914C75.6839 318.583 78.6318 315.949 80.4591 312.34C82.5102 308.305 83.3167 303.754 84.8865 299.54C85.0322 299.136 84.6017 299.255 84.3206 299.462C76.8486 304.973 74.4666 310.904 72.3225 318.829C72.4231 314.716 72.737 310.602 73.6225 306.489C75.2365 298.968 78.4306 291.515 83.8337 285.933C84.034 285.721 83.72 285.395 83.5066 285.609Z" fill="#001054"/>
<path d="M85.8149 287.01C87.928 287.082 89.2534 290.459 90.9003 291.445C91.7717 291.97 92.6205 291.938 93.2324 291.079C94.8643 288.801 92.6252 285.99 90.5196 284.419C92.0255 285.038 93.2747 286.126 94.8981 286.434C95.8813 286.615 96.6456 286.25 96.8749 285.251C97.5903 282.145 93.6949 280.763 91.0225 280.698C92.3178 279.798 96.0317 277.349 94.0587 276.145C92.0593 274.936 87.7015 278.437 86.2802 279.59C84.1915 281.285 81.6996 283.818 81.6056 286.469C81.4834 289.564 84.1887 287.66 85.8149 287.01Z" fill="#5770D1"/>
<path opacity="0.1" d="M85.8149 287.01C87.928 287.082 89.2534 290.459 90.9003 291.445C91.7717 291.97 92.6205 291.938 93.2324 291.079C94.8643 288.801 92.6252 285.99 90.5196 284.419C92.0255 285.038 93.2747 286.126 94.8981 286.434C95.8813 286.615 96.6456 286.25 96.8749 285.251C97.5903 282.145 93.6949 280.763 91.0225 280.698C92.3178 279.798 96.0317 277.349 94.0587 276.145C92.0593 274.936 87.7015 278.437 86.2802 279.59C84.1915 281.285 81.6996 283.818 81.6056 286.469C81.4834 289.564 84.1887 287.66 85.8149 287.01Z" fill="#2F313F"/>
<path d="M85.2048 287.53C87.9073 286.302 93.097 288.07 93.5388 287.047C94.4337 284.966 90.2855 283.537 88.0464 283.261C90.1088 282.702 94.0596 281.812 93.9383 279.823C93.7898 277.395 87.8782 279.483 84.8861 281.777C81.1167 284.668 81.1412 287.457 81.7644 288.015C82.6189 288.782 84.7583 287.733 85.2048 287.53Z" fill="#5770D1"/>
<path d="M55.53 284.419C68.2623 295.97 71.0316 314.483 69.0642 330.867C69.0115 331.24 68.4362 331.161 68.4231 330.814C68.2821 327.106 68.2539 323.428 68.1035 319.767C68.0302 319.601 67.9681 319.447 67.8939 319.281C64.602 317.073 61.5564 314.554 59.5937 311.016C57.3903 307.063 56.4108 302.546 54.6831 298.394C54.5224 297.997 54.9566 298.098 55.2462 298.295C62.9222 303.518 65.5288 309.355 67.9728 317.191C67.7153 313.084 67.2453 308.986 66.2047 304.909C64.3059 297.455 60.8307 290.129 55.2198 284.757C55.0083 284.552 55.3091 284.214 55.53 284.419Z" fill="#001054"/>
<path d="M53.2761 285.908C51.1668 286.059 49.972 289.486 48.3637 290.533C47.513 291.09 46.6642 291.09 46.0193 290.256C44.302 288.041 46.432 285.148 48.4765 283.497C46.9951 284.173 45.7881 285.307 44.1779 285.678C43.2022 285.895 42.4248 285.56 42.1569 284.571C41.324 281.494 45.1639 279.965 47.8317 279.799C46.5025 278.948 42.6983 276.643 44.6244 275.364C46.5758 274.08 51.0643 277.412 52.5279 278.511C54.6796 280.125 57.2655 282.562 57.461 285.207C57.7007 288.295 54.9258 286.495 53.2761 285.908Z" fill="#5770D1"/>
<path opacity="0.1" d="M53.2761 285.908C51.1668 286.059 49.972 289.486 48.3637 290.533C47.513 291.09 46.6642 291.09 46.0193 290.256C44.302 288.041 46.432 285.148 48.4765 283.497C46.9951 284.173 45.7881 285.307 44.1779 285.678C43.2022 285.895 42.4248 285.56 42.1569 284.571C41.324 281.494 45.1639 279.965 47.8317 279.799C46.5025 278.948 42.6983 276.643 44.6244 275.364C46.5758 274.08 51.0643 277.412 52.5279 278.511C54.6796 280.125 57.2655 282.562 57.461 285.207C57.7007 288.295 54.9258 286.495 53.2761 285.908Z" fill="#2F313F"/>
<path d="M53.9074 286.406C51.1607 285.281 46.0405 287.246 45.5611 286.241C44.5882 284.195 48.6781 282.611 50.905 282.249C48.8229 281.769 44.8411 281.031 44.8871 279.039C44.9426 276.607 50.9294 278.468 54.007 280.647C57.8836 283.392 57.9653 286.18 57.3637 286.762C56.5384 287.56 54.3604 286.593 53.9074 286.406Z" fill="#5770D1"/>
<path d="M68.5508 314.927C69.4908 321.014 70.6564 327.308 72.5045 333.19C72.6812 333.726 73.4764 333.588 73.3947 333.01C72.5581 327.382 71.0334 321.858 70.1977 316.23C69.348 310.536 68.8939 304.762 69.2201 299.003C69.7559 289.519 72.3315 279.431 78.5205 272.01C78.6568 271.834 78.3682 271.585 78.2281 271.749C65.838 286.195 67.8092 303.907 67.8205 305.495C66.0664 299.513 64.2588 292.659 57.6243 286.569C57.3385 286.305 57.1148 286.43 57.1627 286.877C58.349 297.97 61.4332 303.761 67.8646 309.692C68.0451 311.449 68.2717 313.199 68.5508 314.927Z" fill="#001054"/>
<path d="M78.6298 273.669C80.8586 272.68 83.9333 275.518 86.1385 275.711C87.306 275.816 88.1708 275.356 88.3739 274.157C88.9209 270.972 85.1826 269.184 82.2065 268.612C84.0809 268.497 85.9242 268.997 87.7638 268.499C88.8749 268.191 89.484 267.429 89.2199 266.276C88.3983 262.693 83.6616 263.22 80.8557 264.499C81.7469 262.912 84.3666 258.502 81.714 258.246C79.0312 257.998 76.2723 263.824 75.3774 265.736C74.0633 268.546 72.7529 272.428 73.99 275.226C75.4216 278.499 77.2696 275.161 78.6298 273.669Z" fill="#5770D1"/>
<path opacity="0.1" d="M78.6298 273.669C80.8586 272.68 83.9333 275.518 86.1385 275.711C87.306 275.816 88.1708 275.356 88.3739 274.157C88.9209 270.972 85.1826 269.184 82.2065 268.612C84.0809 268.497 85.9242 268.997 87.7638 268.499C88.8749 268.191 89.484 267.429 89.2199 266.276C88.3983 262.693 83.6616 263.22 80.8557 264.499C81.7469 262.912 84.3666 258.502 81.714 258.246C79.0312 257.998 76.2723 263.824 75.3774 265.736C74.0633 268.546 72.7529 272.428 73.99 275.226C75.4216 278.499 77.2696 275.161 78.6298 273.669Z" fill="#2F313F"/>
<path d="M78.2572 274.519C80.4427 271.884 86.7182 271.105 86.6608 269.822C86.5414 267.213 81.519 267.819 79.0562 268.659C80.9146 267.041 84.5656 264.129 83.4385 262.127C82.0623 259.682 76.9798 264.824 75.0302 268.711C72.574 273.608 74.0028 276.489 74.9315 276.755C76.2052 277.119 77.8972 274.954 78.2572 274.519Z" fill="#5770D1"/>
<path d="M60.3978 318.263L54.9336 360.014H88.1852C87.4999 356.314 81.3109 318.215 81.3109 318.215L60.3978 318.263Z" fill="#5770D1"/>
<path d="M40.7715 360.153L89.3281 359.924L137.886 359.842L235 359.684L332.114 359.841L380.671 359.923L429.228 360.153L380.671 360.383L332.114 360.466L235 360.622L137.886 360.465L89.3281 360.381L40.7715 360.153Z" fill="#001054"/>
<path d="M235 441.906C312.383 441.906 375.114 433.037 375.114 422.096C375.114 411.155 312.383 402.285 235 402.285C157.618 402.285 94.8867 411.155 94.8867 422.096C94.8867 433.037 157.618 441.906 235 441.906Z" fill="#B4B4DB"/>
<path d="M148.118 214.011L142.282 191.047L96.1859 202.762L90.0938 178.792L126.93 94.8389L145.201 90.1953L162.965 160.093L177.716 156.344L183.85 180.481L169.1 184.23L174.936 207.194L148.118 214.011ZM116.536 171.894L139.333 166.1L131.792 136.431L116.536 171.894Z" fill="#001054"/>
<path d="M280.139 137.35C280.139 144.96 278.984 151.964 276.68 158.363C274.372 164.763 271.201 170.297 267.166 174.966C263.129 179.636 258.373 183.269 252.899 185.862C247.42 188.456 241.453 189.754 234.997 189.754C228.538 189.754 222.545 188.456 217.01 185.862C211.476 183.268 206.69 179.635 202.656 174.966C198.618 170.297 195.478 164.763 193.23 158.363C190.982 151.964 189.857 144.96 189.857 137.35C189.857 129.74 190.982 122.735 193.23 116.337C195.479 109.937 198.618 104.403 202.656 99.7335C206.69 95.0636 211.476 91.4051 217.01 88.7515C222.545 86.1007 228.538 84.7734 234.997 84.7734C241.453 84.7734 247.419 86.1007 252.899 88.7515C258.373 91.4051 263.129 95.0636 267.166 99.7335C271.201 104.403 274.372 109.937 276.68 116.337C278.984 122.735 280.139 129.74 280.139 137.35ZM252.293 137.35C252.293 129.281 250.677 122.735 247.45 117.72C244.22 112.705 240.071 110.197 234.998 110.197C229.694 110.197 225.456 112.705 222.286 117.72C219.114 122.735 217.53 129.281 217.53 137.35C217.53 145.421 219.114 151.937 222.286 156.893C225.456 161.852 229.694 164.33 234.998 164.33C240.071 164.33 244.22 161.853 247.45 156.893C250.678 151.937 252.293 145.421 252.293 137.35Z" fill="#001054"/>
<path d="M329.792 209.583L333.581 186.194L286.633 178.587L290.588 154.174L357.806 91.8281L376.415 94.8427L364.881 166.035L379.905 168.468L375.922 193.053L360.898 190.619L357.109 214.008L329.792 209.583ZM317.59 158.374L340.808 162.135L345.703 131.917L317.59 158.374Z" fill="#001054"/>
<path d="M196.154 68.1133C194.179 68.1133 192.388 67.727 190.781 66.9553C189.173 66.1835 187.794 65.158 186.642 63.8796C185.49 62.6021 184.598 61.1395 183.965 59.4945C183.332 57.8495 183.016 56.1659 183.016 54.4439C183.016 52.6466 183.35 50.9254 184.021 49.2795C184.692 47.6345 185.617 46.1784 186.793 44.9123C187.97 43.6461 189.369 42.6403 190.99 41.893C192.609 41.1466 194.369 40.7734 196.268 40.7734C198.217 40.7734 199.995 41.172 201.603 41.9691C203.211 42.7662 204.584 43.8106 205.723 45.1021C206.862 46.3937 207.748 47.862 208.382 49.507C209.014 51.1529 209.331 52.8233 209.331 54.52C209.331 56.3182 209.001 58.0318 208.344 59.6656C207.685 61.2983 206.774 62.7412 205.609 63.9943C204.445 65.2473 203.053 66.2474 201.433 66.9938C199.812 67.7402 198.053 68.1133 196.154 68.1133ZM188.331 54.4429C188.331 55.6076 188.508 56.7346 188.862 57.8222C189.217 58.9107 189.729 59.8733 190.4 60.708C191.07 61.5437 191.894 62.2139 192.869 62.7206C193.843 63.2272 194.951 63.4801 196.192 63.4801C197.457 63.4801 198.577 63.2206 199.552 62.7018C200.527 62.1838 201.349 61.4929 202.021 60.6319C202.691 59.7718 203.197 58.8036 203.54 57.7273C203.882 56.651 204.052 55.5568 204.052 54.442C204.052 53.2783 203.868 52.1512 203.501 51.0627C203.134 49.9742 202.615 49.0125 201.944 48.1769C201.273 47.3412 200.451 46.6776 199.477 46.1831C198.502 45.6896 197.407 45.4424 196.193 45.4424C194.926 45.4424 193.8 45.7019 192.812 46.2207C191.825 46.7396 191.003 47.423 190.345 48.2709C189.686 49.1197 189.187 50.0813 188.845 51.1567C188.502 52.2349 188.331 53.329 188.331 54.4429Z" fill="#001054"/>
<path d="M222.053 68.3034C220.432 68.3034 218.977 68.0252 217.686 67.4678C216.395 66.9113 215.3 66.1574 214.401 65.209C213.503 64.2596 212.813 63.1645 212.331 61.9237C211.85 60.6838 211.609 59.3791 211.609 58.0123C211.609 56.6202 211.85 55.3042 212.331 54.0634C212.812 52.8235 213.503 51.7284 214.401 50.779C215.3 49.8296 216.395 49.0767 217.686 48.5193C218.977 47.9628 220.432 47.6836 222.053 47.6836C223.672 47.6836 225.122 47.9628 226.401 48.5193C227.679 49.0767 228.768 49.8296 229.667 50.779C230.565 51.7284 231.255 52.8235 231.737 54.0634C232.217 55.3042 232.458 56.6202 232.458 58.0123C232.458 59.3791 232.217 60.6838 231.737 61.9237C231.255 63.1645 230.572 64.2586 229.687 65.209C228.8 66.1584 227.712 66.9122 226.421 67.4678C225.128 68.0243 223.672 68.3034 222.053 68.3034ZM216.85 58.0123C216.85 58.8987 216.983 59.7024 217.248 60.4234C217.514 61.1453 217.881 61.7714 218.349 62.3034C218.817 62.8345 219.368 63.2462 220.001 63.5376C220.633 63.829 221.317 63.9747 222.052 63.9747C222.786 63.9747 223.469 63.829 224.102 63.5376C224.735 63.2472 225.285 62.8355 225.754 62.3034C226.222 61.7714 226.589 61.1388 226.854 60.4046C227.12 59.6705 227.253 58.8611 227.253 57.9747C227.253 57.1146 227.119 56.3175 226.854 55.5824C226.588 54.8483 226.222 54.2157 225.754 53.6836C225.284 53.1516 224.734 52.7408 224.102 52.4494C223.469 52.158 222.786 52.0123 222.052 52.0123C221.317 52.0123 220.633 52.1646 220.001 52.4682C219.368 52.7718 218.817 53.1901 218.349 53.7212C217.88 54.2533 217.514 54.8859 217.248 55.62C216.982 56.3551 216.85 57.1522 216.85 58.0123Z" fill="#001054"/>
<path d="M247.796 68.3034C246.226 68.3034 244.859 67.9556 243.696 67.2591C242.531 66.5635 241.619 65.6207 240.961 64.4306V76.0124H235.873V48.0258H240.315V51.4427C241.05 50.2789 241.999 49.3606 243.164 48.6894C244.327 48.0192 245.67 47.6836 247.188 47.6836C248.53 47.6836 249.77 47.9562 250.909 48.5005C252.049 49.0447 253.03 49.7789 253.852 50.7029C254.675 51.6269 255.321 52.7154 255.79 53.9684C256.258 55.2215 256.492 56.545 256.492 57.9371C256.492 59.38 256.277 60.7346 255.846 61.9998C255.416 63.266 254.814 64.3677 254.042 65.3039C253.27 66.2411 252.352 66.9743 251.289 67.5063C250.227 68.0374 249.062 68.3034 247.796 68.3034ZM246.088 63.9747C246.848 63.9747 247.55 63.8102 248.196 63.4812C248.84 63.1522 249.391 62.7095 249.847 62.1521C250.302 61.5956 250.656 60.9498 250.91 60.2147C251.164 59.4806 251.29 58.722 251.29 57.9371C251.29 57.1015 251.151 56.3231 250.873 55.6022C250.593 54.8802 250.208 54.2542 249.715 53.7222C249.221 53.1911 248.638 52.7728 247.968 52.4691C247.297 52.1655 246.569 52.0132 245.785 52.0132C245.304 52.0132 244.811 52.096 244.305 52.2605C243.798 52.425 243.33 52.659 242.9 52.9636C242.469 53.2672 242.084 53.6225 241.741 54.0267C241.4 54.4319 241.14 54.8755 240.963 55.3559V60.0267C241.419 61.166 242.116 62.1088 243.052 62.8552C243.986 63.6016 244.999 63.9747 246.088 63.9747Z" fill="#001054"/>
<path d="M267.466 68.3029C265.796 68.3029 264.162 68.0369 262.568 67.5058C260.973 66.9747 259.606 66.2142 258.467 65.2272L260.366 62.0378C261.581 62.8989 262.764 63.5503 263.916 63.993C265.068 64.4367 266.213 64.6576 267.353 64.6576C268.364 64.6576 269.162 64.4677 269.745 64.088C270.327 63.7082 270.618 63.1639 270.618 62.4552C270.618 61.7464 270.277 61.2275 269.593 60.8985C268.909 60.5695 267.795 60.1898 266.251 59.7593C264.96 59.4049 263.859 59.0627 262.947 58.7337C262.035 58.4047 261.301 58.0315 260.744 57.6132C260.187 57.1959 259.783 56.7146 259.529 56.1703C259.275 55.6261 259.15 54.9737 259.15 54.2142C259.15 53.2018 259.346 52.2909 259.739 51.4797C260.131 50.6704 260.681 49.9795 261.39 49.4098C262.099 48.8402 262.929 48.4041 263.877 48.1004C264.827 47.7968 265.857 47.6445 266.972 47.6445C268.466 47.6445 269.863 47.8598 271.168 48.2903C272.472 48.7208 273.668 49.4164 274.756 50.379L272.705 53.4547C271.693 52.6952 270.712 52.1387 269.762 51.7843C268.812 51.4299 267.87 51.2532 266.933 51.2532C266.072 51.2532 265.35 51.4309 264.769 51.7843C264.186 52.1387 263.894 52.7083 263.894 53.4932C263.894 53.8476 263.964 54.139 264.104 54.3665C264.242 54.594 264.465 54.797 264.769 54.9737C265.072 55.1514 265.471 55.3225 265.964 55.486C266.458 55.6515 267.072 55.8216 267.806 55.9983C269.172 56.3527 270.343 56.7071 271.318 57.0615C272.292 57.4158 273.089 57.821 273.71 58.2759C274.33 58.7318 274.786 59.2573 275.078 59.8514C275.368 60.4464 275.514 61.1617 275.514 61.9974C275.514 63.947 274.793 65.4848 273.349 66.6109C271.91 67.7399 269.947 68.3029 267.466 68.3029Z" fill="#001054"/>
<path d="M279.807 57.7836V40.6953H284.895V57.7836H279.807ZM279.807 67.9224V62.1884H284.895V67.9224H279.807Z" fill="#001054"/>
<path d="M254.364 295.016H220.982V297.75H254.364V295.016Z" fill="#5A5A81"/>
<path d="M254.364 298.578H220.982V301.313H254.364V298.578Z" fill="#5A5A81"/>
<path d="M254.364 302.141H220.982V304.875H254.364V302.141Z" fill="#5A5A81"/>
<path d="M254.364 305.703H220.982V308.438H254.364V305.703Z" fill="#5A5A81"/>
<path d="M254.364 309.262H220.982V311.996H254.364V309.262Z" fill="#5A5A81"/>
<path d="M268.815 380.316H205.35V383.051H268.815V380.316Z" fill="#5A5A81"/>
<path d="M268.815 383.879H205.35V386.613H268.815V383.879Z" fill="#5A5A81"/>
<path d="M268.815 387.441H205.35V390.176H268.815V387.441Z" fill="#5A5A81"/>
<path d="M268.815 391H205.35V393.734H268.815V391Z" fill="#5A5A81"/>
<path d="M268.815 394.562H205.35V397.297H268.815V394.562Z" fill="#5A5A81"/>
<path d="M177.504 272.409C177.535 272.039 163.613 267.376 163.613 267.376L164.436 219.543L182.896 215.582L177.504 272.409Z" fill="#5770D1"/>
<path opacity="0.2" d="M177.504 272.409C177.535 272.039 163.613 267.376 163.613 267.376L164.436 219.543L182.896 215.582L177.504 272.409Z" fill="#2F313F"/>
<path d="M305.02 291.185C305.117 290.826 319.794 291.239 319.794 291.239L335.483 246.045L319.513 235.973L305.02 291.185Z" fill="#5770D1"/>
<path opacity="0.2" d="M305.02 291.185C305.117 290.826 319.794 291.239 319.794 291.239L335.483 246.045L319.513 235.973L305.02 291.185Z" fill="#2F313F"/>
<path d="M174.824 290.024C174.824 290.024 179.986 212.663 184.513 187.215C184.513 187.215 277.965 194.283 328.414 213.565C328.414 213.565 302.405 303.925 301.059 308.409C301.059 308.409 235.251 295.446 174.824 290.024Z" fill="#5770D1"/>
<path opacity="0.1" d="M258.238 197.547C256.719 206.861 255.181 216.173 253.59 225.475L248.773 253.373L248.514 252.98L279.826 260.418L295.466 264.208L311.088 268.073L295.383 264.559L279.696 260.97L248.356 253.649L248.039 253.575L248.096 253.254L253.083 225.386C254.759 216.099 256.49 206.821 258.238 197.547Z" fill="#2F313F"/>
<path opacity="0.1" d="M254.802 202.857C254.819 203.71 254.138 204.587 253.161 204.673C252.687 204.718 252.172 204.567 251.787 204.231C251.401 203.896 251.171 203.379 251.168 202.857C251.171 202.335 251.399 201.817 251.786 201.482C252.17 201.143 252.687 200.995 253.161 201.039C254.139 201.124 254.819 202.003 254.802 202.857ZM254.802 202.857C254.798 202.426 254.607 202.003 254.287 201.732C253.965 201.46 253.544 201.349 253.162 201.393C252.373 201.484 251.862 202.192 251.873 202.857C251.861 203.521 252.371 204.233 253.162 204.322C253.544 204.366 253.966 204.255 254.288 203.983C254.607 203.71 254.798 203.287 254.802 202.857Z" fill="#2F313F"/>
<path opacity="0.1" d="M253.161 214.365C253.178 215.218 252.498 216.096 251.52 216.181C251.046 216.226 250.531 216.074 250.146 215.739C249.76 215.403 249.53 214.886 249.527 214.365C249.53 213.843 249.759 213.325 250.145 212.989C250.529 212.651 251.046 212.502 251.52 212.547C252.5 212.633 253.179 213.512 253.161 214.365ZM253.161 214.365C253.158 213.934 252.967 213.511 252.646 213.239C252.325 212.968 251.904 212.857 251.521 212.901C250.732 212.992 250.221 213.7 250.232 214.365C250.22 215.029 250.731 215.741 251.521 215.83C251.904 215.873 252.326 215.762 252.647 215.49C252.968 215.219 253.158 214.795 253.161 214.365Z" fill="#2F313F"/>
<path opacity="0.1" d="M251.142 226.529C251.159 227.382 250.478 228.26 249.501 228.345C249.027 228.39 248.512 228.239 248.126 227.903C247.741 227.567 247.511 227.05 247.508 226.529C247.511 226.007 247.739 225.489 248.125 225.153C248.51 224.815 249.027 224.667 249.501 224.711C250.48 224.797 251.16 225.675 251.142 226.529ZM251.142 226.529C251.138 226.098 250.947 225.675 250.627 225.404C250.305 225.132 249.884 225.021 249.502 225.065C248.713 225.156 248.202 225.864 248.213 226.529C248.201 227.193 248.711 227.905 249.502 227.994C249.884 228.038 250.306 227.926 250.628 227.655C250.947 227.382 251.138 226.959 251.142 226.529Z" fill="#2F313F"/>
<path opacity="0.1" d="M249.12 238.693C249.138 239.546 248.457 240.423 247.479 240.509C247.005 240.553 246.49 240.403 246.105 240.067C245.719 239.731 245.489 239.214 245.486 238.693C245.488 238.171 245.719 237.653 246.104 237.318C246.488 236.979 247.005 236.831 247.479 236.875C248.459 236.96 249.138 237.839 249.12 238.693ZM249.12 238.693C249.117 238.262 248.926 237.839 248.604 237.568C248.283 237.296 247.862 237.185 247.479 237.229C246.69 237.32 246.179 238.028 246.19 238.693C246.178 239.357 246.689 240.069 247.479 240.158C247.862 240.201 248.284 240.091 248.605 239.819C248.926 239.546 249.117 239.123 249.12 238.693Z" fill="#2F313F"/>
<path opacity="0.1" d="M256.005 258.087C256.023 258.941 255.342 259.818 254.364 259.903C253.89 259.948 253.375 259.797 252.99 259.462C252.604 259.126 252.374 258.609 252.371 258.087C252.373 257.566 252.602 257.048 252.989 256.712C253.373 256.374 253.89 256.225 254.364 256.269C255.342 256.355 256.022 257.234 256.005 258.087ZM256.005 258.087C256.001 257.657 255.811 257.234 255.489 256.962C255.168 256.69 254.746 256.58 254.364 256.624C253.575 256.715 253.064 257.423 253.075 258.087C253.063 258.752 253.573 259.463 254.364 259.553C254.746 259.597 255.169 259.485 255.49 259.212C255.811 258.941 256 258.518 256.005 258.087Z" fill="#2F313F"/>
<path opacity="0.1" d="M267.486 260.888C267.503 261.742 266.822 262.62 265.844 262.704C265.371 262.748 264.855 262.598 264.47 262.262C264.085 261.927 263.854 261.41 263.852 260.888C263.854 260.366 264.084 259.848 264.469 259.513C264.854 259.174 265.371 259.026 265.844 259.07C266.824 259.157 267.503 260.035 267.486 260.888ZM267.486 260.888C267.482 260.458 267.291 260.035 266.97 259.763C266.649 259.491 266.228 259.38 265.845 259.424C265.057 259.516 264.545 260.224 264.557 260.888C264.544 261.553 265.055 262.264 265.845 262.354C266.228 262.397 266.65 262.286 266.971 262.013C267.291 261.742 267.482 261.319 267.486 260.888Z" fill="#2F313F"/>
<path opacity="0.1" d="M278.968 263.689C278.985 264.542 278.304 265.419 277.327 265.505C276.853 265.549 276.338 265.399 275.953 265.063C275.567 264.728 275.337 264.211 275.334 263.689C275.337 263.167 275.565 262.649 275.952 262.314C276.336 261.975 276.853 261.827 277.327 261.871C278.305 261.956 278.985 262.835 278.968 263.689ZM278.968 263.689C278.964 263.258 278.773 262.835 278.453 262.564C278.131 262.292 277.71 262.181 277.328 262.225C276.539 262.316 276.028 263.024 276.039 263.689C276.027 264.353 276.537 265.065 277.328 265.154C277.71 265.198 278.132 265.087 278.454 264.814C278.773 264.542 278.963 264.118 278.968 263.689Z" fill="#2F313F"/>
<path opacity="0.1" d="M290.448 266.49C290.466 267.343 289.785 268.22 288.807 268.306C288.333 268.35 287.818 268.2 287.433 267.864C287.048 267.528 286.817 267.011 286.814 266.49C286.817 265.968 287.046 265.45 287.432 265.114C287.817 264.776 288.333 264.627 288.807 264.672C289.787 264.757 290.465 265.636 290.448 266.49ZM290.448 266.49C290.445 266.059 290.254 265.636 289.933 265.364C289.612 265.093 289.191 264.982 288.808 265.026C288.02 265.117 287.508 265.825 287.519 266.49C287.507 267.154 288.018 267.866 288.808 267.955C289.191 267.998 289.613 267.887 289.934 267.616C290.254 267.343 290.445 266.92 290.448 266.49Z" fill="#2F313F"/>
<path opacity="0.1" d="M301.923 269.417C301.875 270.27 301.129 271.092 300.148 271.102C299.672 271.11 299.17 270.92 298.811 270.555C298.452 270.191 298.262 269.659 298.3 269.138C298.342 268.618 298.611 268.12 299.022 267.814C299.431 267.507 299.958 267.398 300.427 267.479C301.397 267.64 302.006 268.568 301.923 269.417ZM301.923 269.417C301.952 268.988 301.795 268.551 301.496 268.255C301.196 267.959 300.784 267.816 300.4 267.831C299.606 267.861 299.041 268.528 299.002 269.192C298.938 269.853 299.393 270.602 300.174 270.752C300.552 270.825 300.981 270.747 301.323 270.5C301.664 270.254 301.887 269.847 301.923 269.417Z" fill="#2F313F"/>
<path opacity="0.1" d="M247.099 250.853C247.116 251.707 246.435 252.585 245.458 252.669C244.984 252.714 244.469 252.564 244.083 252.227C243.698 251.892 243.468 251.375 243.465 250.853C243.468 250.331 243.697 249.814 244.082 249.478C244.467 249.14 244.984 248.99 245.458 249.035C246.437 249.121 247.117 250 247.099 250.853ZM247.099 250.853C247.095 250.423 246.904 250 246.583 249.728C246.261 249.456 245.84 249.345 245.458 249.39C244.669 249.481 244.158 250.189 244.169 250.853C244.157 251.518 244.667 252.229 245.458 252.319C245.84 252.362 246.262 252.251 246.583 251.978C246.905 251.707 247.095 251.284 247.099 250.853Z" fill="#2F313F"/>
<path opacity="0.2" d="M227.765 271.005C238.664 261.206 239.555 244.427 229.756 233.529C219.957 222.631 203.178 221.739 192.28 231.539C181.382 241.338 180.491 258.116 190.29 269.014C200.089 279.913 216.867 280.804 227.765 271.005Z" fill="#2F313F"/>
<path d="M229.919 258.809C234.08 247.817 228.542 235.533 217.55 231.372C206.557 227.211 194.273 232.749 190.112 243.741C185.951 254.733 191.489 267.018 202.482 271.179C213.474 275.339 225.758 269.801 229.919 258.809Z" fill="#001054"/>
<path d="M208.739 243.45L203.764 242.645L202.958 247.62L207.933 248.426L208.739 243.45Z" fill="#5770D1"/>
<path d="M204.569 237.669L199.594 236.863L198.788 241.839L203.763 242.644L204.569 237.669Z" fill="#5770D1"/>
<path d="M224.469 240.892L219.494 240.086L218.688 245.061L223.663 245.867L224.469 240.892Z" fill="#5770D1"/>
<path d="M201.364 257.458L196.389 256.652L195.583 261.628L200.558 262.434L201.364 257.458Z" fill="#5770D1"/>
<path d="M221.264 260.681L216.289 259.875L215.483 264.85L220.458 265.656L221.264 260.681Z" fill="#5770D1"/>
<path d="M207.145 253.29L202.17 252.484L201.364 257.46L206.339 258.266L207.145 253.29Z" fill="#5770D1"/>
<path d="M212.917 249.177L207.941 248.371L207.135 253.346L212.111 254.152L212.917 249.177Z" fill="#5770D1"/>
<path d="M218.69 245.064L213.715 244.258L212.909 249.233L217.884 250.039L218.69 245.064Z" fill="#5770D1"/>
<path d="M217.1 254.896L212.125 254.09L211.319 259.065L216.294 259.871L217.1 254.896Z" fill="#5770D1"/>
<path d="M301.767 279.212C311.056 267.875 309.396 251.155 298.06 241.866C286.723 232.577 270.003 234.237 260.714 245.573C251.425 256.91 253.085 273.63 264.421 282.919C275.757 292.208 292.478 290.548 301.767 279.212Z" fill="#5770D1"/>
<path opacity="0.2" d="M301.767 279.212C311.056 267.875 309.396 251.155 298.06 241.866C286.723 232.577 270.003 234.237 260.714 245.573C251.425 256.91 253.085 273.63 264.421 282.919C275.757 292.208 292.478 290.548 301.767 279.212Z" fill="#2F313F"/>
<path opacity="0.2" d="M307.061 268.541C306.938 269.064 306.799 269.568 306.642 270.073L254.916 259.04C255.038 258.117 255.204 257.194 255.421 256.263C258.809 242.007 273.115 233.195 287.38 236.582C301.636 239.97 310.448 254.276 307.061 268.541Z" fill="#2F313F"/>
<path d="M289.441 282.045C300.286 277.514 305.405 265.049 300.874 254.203C296.343 243.358 283.877 238.239 273.032 242.77C262.186 247.301 257.068 259.767 261.599 270.612C266.13 281.457 278.595 286.576 289.441 282.045Z" fill="#001054"/>
<path d="M286.599 250.773L281.695 249.607L275.895 274.015L280.799 275.181L286.599 250.773Z" fill="#5770D1"/>
<path d="M308.601 268.042L254.268 255.129C257.833 240.129 272.888 230.86 287.889 234.425C302.89 237.991 312.166 253.042 308.601 268.042Z" fill="#5770D1"/>
<path opacity="0.2" d="M308.601 268.042L254.268 255.129C257.833 240.129 272.888 230.86 287.889 234.425C302.89 237.991 312.166 253.042 308.601 268.042Z" fill="#2F313F"/>
<path opacity="0.1" d="M235.066 278.168C235.204 276.046 235.983 273.895 237.522 272.193C238.28 271.336 239.293 270.663 240.407 270.253C241.528 269.842 242.739 269.769 243.886 269.867C245.055 270.003 246.248 270.415 247.222 271.152C248.177 271.904 248.909 272.884 249.339 273.94C250.226 276.044 250.323 278.292 249.893 280.377C249.54 278.293 249.001 276.269 248.022 274.608C247.051 272.934 245.515 271.894 243.685 271.732C241.818 271.5 239.997 272.001 238.529 273.241C237.062 274.477 235.942 276.247 235.066 278.168Z" fill="#2F313F"/>
<path d="M182.094 224.038C182.314 221.203 182.632 218.381 182.901 215.553C183.203 212.729 183.513 209.906 183.856 207.089C184.182 204.269 184.55 201.455 184.911 198.639C185.264 195.822 185.672 193.014 186.05 190.2L186.151 189.449L186.912 189.497C193.035 189.883 199.145 190.377 205.247 191.005C208.297 191.318 211.344 191.672 214.387 192.063C217.424 192.5 220.465 192.902 223.485 193.455L205.139 192.319L186.812 191.134L187.674 190.431C187.257 193.238 186.87 196.05 186.429 198.854C185.995 201.659 185.567 204.465 185.099 207.265C184.648 210.067 184.164 212.866 183.67 215.662C183.145 218.454 182.668 221.253 182.094 224.038Z" fill="white"/>
<path d="M186.508 245.487C187.124 242.079 188.673 238.831 190.754 236.002C191.272 235.291 191.861 234.634 192.428 233.957C193.042 233.323 193.68 232.711 194.31 232.089C194.997 231.531 195.691 230.977 196.396 230.44C197.145 229.966 197.885 229.47 198.646 229.015C199.448 228.629 200.245 228.232 201.054 227.866L203.575 226.994L206.185 226.455C207.061 226.327 207.951 226.3 208.83 226.234C212.368 226.143 215.851 226.898 219.047 228.192C215.645 227.555 212.255 227.201 208.914 227.52C205.58 227.83 202.341 228.827 199.445 230.458C196.526 232.052 193.941 234.249 191.758 236.802C189.583 239.369 187.783 242.275 186.508 245.487Z" fill="white"/>
<path d="M259.711 252.653C260.792 249.362 262.774 246.36 265.226 243.845C265.837 243.213 266.512 242.643 267.167 242.051C267.862 241.508 268.579 240.99 269.289 240.46C270.046 240.002 270.81 239.549 271.582 239.115C272.39 238.749 273.191 238.359 274.008 238.014C274.856 237.743 275.7 237.46 276.552 237.209L279.17 236.693L281.829 236.52C282.715 236.513 283.599 236.61 284.479 236.666C287.996 237.064 291.34 238.293 294.327 240.016C291.046 238.915 287.738 238.096 284.384 237.951C281.04 237.799 277.694 238.339 274.601 239.555C271.49 240.73 268.626 242.55 266.11 244.777C263.601 247.019 261.417 249.648 259.711 252.653Z" fill="white"/>
<path d="M177.79 337.698C170.992 337.698 156.11 336.169 146.533 323.856C134.281 308.104 138.709 277.877 138.903 276.598L144.222 277.405C144.178 277.696 139.951 306.63 150.78 320.553C161.367 334.165 180.57 332.211 180.763 332.187L181.368 337.533C181.159 337.559 179.842 337.698 177.79 337.698Z" fill="#5770D1"/>
<path opacity="0.4" d="M177.79 337.698C170.992 337.698 156.11 336.169 146.533 323.856C134.281 308.104 138.709 277.877 138.903 276.598L144.222 277.405C144.178 277.696 139.951 306.63 150.78 320.553C161.367 334.165 180.57 332.211 180.763 332.187L181.368 337.533C181.159 337.559 179.842 337.698 177.79 337.698Z" fill="white"/>
<path d="M145.789 281.066C144.819 281.066 143.828 280.985 142.82 280.822C133.846 279.368 129.874 273.999 128.121 269.75C126.364 265.492 125.958 260.341 126.914 254.441L138.294 256.286C137.701 259.94 137.873 263.162 138.778 265.354C139.422 266.918 140.675 268.796 144.663 269.442C146.485 269.737 148.454 269.581 150.516 266.471C152.108 264.07 153.065 260.802 153.399 258.733L164.779 260.576C164.516 262.204 163.4 267.9 160.124 272.841C156.561 278.215 151.547 281.066 145.789 281.066Z" fill="#5770D1"/>
<path d="M189.031 353.095C189.012 352.849 179.391 351.312 179.391 351.312L174.721 319.912L186.374 315.309L189.031 353.095Z" fill="#5770D1"/>
<path opacity="0.2" d="M189.031 353.095C189.012 352.849 179.391 351.312 179.391 351.312L174.721 319.912L186.374 315.309L189.031 353.095Z" fill="#2F313F"/>
<path d="M284.156 353.156C284.182 352.912 293.835 351.587 293.835 351.587L299.197 320.297L287.648 315.438L284.156 353.156Z" fill="#5770D1"/>
<path opacity="0.2" d="M284.156 353.156C284.182 352.912 293.835 351.587 293.835 351.587L299.197 320.297L287.648 315.438L284.156 353.156Z" fill="#2F313F"/>
<path d="M185.028 308.28C185.028 308.28 262.847 304.953 289.134 309.334C289.134 309.334 281.415 384.634 280.998 386.094C280.998 386.094 203.588 385.886 191.487 386.094C191.487 386.094 184.929 336.023 185.028 308.28Z" fill="#5770D1"/>
<path opacity="0.2" d="M208.666 328.911C208.666 328.911 251.147 327.233 265.498 329.442C265.498 329.442 261.284 367.412 261.057 368.148C261.057 368.148 218.798 368.043 212.193 368.148C212.191 368.148 209.288 342.161 208.666 328.911Z" fill="#2F313F"/>
<path opacity="0.2" d="M214.473 368.134C213.5 368.134 212.73 368.146 212.19 368.153C212.19 368.153 209.291 342.161 208.664 328.91C208.664 328.91 209.63 328.873 211.318 328.816L214.473 368.134Z" fill="#2F313F"/>
<path d="M227.002 338.282C224.621 337.532 222.084 338.854 221.334 341.233C220.583 343.617 221.907 346.151 224.288 346.901C226.667 347.651 229.201 346.331 229.951 343.95C230.701 341.571 229.382 339.032 227.002 338.282ZM229.428 343.784C228.769 345.877 226.542 347.037 224.452 346.378C222.363 345.719 221.202 343.493 221.861 341.4C222.52 339.311 224.747 338.15 226.839 338.81C228.926 339.468 230.087 341.695 229.428 343.784ZM227.002 338.282C224.621 337.532 222.084 338.854 221.334 341.233C220.583 343.617 221.907 346.151 224.288 346.901C226.667 347.651 229.201 346.331 229.951 343.95C230.701 341.571 229.382 339.032 227.002 338.282ZM229.428 343.784C228.769 345.877 226.542 347.037 224.452 346.378C222.363 345.719 221.202 343.493 221.861 341.4C222.52 339.311 224.747 338.15 226.839 338.81C228.926 339.468 230.087 341.695 229.428 343.784ZM227.002 338.282C224.621 337.532 222.084 338.854 221.334 341.233C220.583 343.617 221.907 346.151 224.288 346.901C226.667 347.651 229.201 346.331 229.951 343.95C230.701 341.571 229.382 339.032 227.002 338.282ZM229.428 343.784C228.769 345.877 226.542 347.037 224.452 346.378C222.363 345.719 221.202 343.493 221.861 341.4C222.52 339.311 224.747 338.15 226.839 338.81C228.926 339.468 230.087 341.695 229.428 343.784ZM228.508 333.509C223.488 331.928 218.142 334.717 216.56 339.73C214.98 344.746 217.763 350.095 222.782 351.675C227.795 353.255 233.145 350.469 234.725 345.454C236.307 340.441 233.522 335.088 228.508 333.509ZM230.623 344.16C229.757 346.908 226.821 348.438 224.076 347.572C221.331 346.708 219.801 343.771 220.666 341.023C221.532 338.276 224.47 336.748 227.215 337.613C229.958 338.479 231.488 341.415 230.623 344.16ZM229.951 343.951C230.701 341.571 229.382 339.033 227.002 338.283C224.621 337.533 222.084 338.855 221.334 341.234C220.583 343.618 221.907 346.152 224.288 346.902C226.667 347.652 229.201 346.332 229.951 343.951ZM229.428 343.784C228.769 345.877 226.542 347.037 224.452 346.378C222.363 345.719 221.202 343.493 221.861 341.4C222.52 339.311 224.747 338.15 226.839 338.81C228.926 339.468 230.087 341.695 229.428 343.784ZM227.002 338.282C224.621 337.532 222.084 338.854 221.334 341.233C220.583 343.617 221.907 346.151 224.288 346.901C226.667 347.651 229.201 346.331 229.951 343.95C230.701 341.571 229.382 339.032 227.002 338.282ZM229.428 343.784C228.769 345.877 226.542 347.037 224.452 346.378C222.363 345.719 221.202 343.493 221.861 341.4C222.52 339.311 224.747 338.15 226.839 338.81C228.926 339.468 230.087 341.695 229.428 343.784ZM227.002 338.282C224.621 337.532 222.084 338.854 221.334 341.233C220.583 343.617 221.907 346.151 224.288 346.901C226.667 347.651 229.201 346.331 229.951 343.95C230.701 341.571 229.382 339.032 227.002 338.282ZM229.428 343.784C228.769 345.877 226.542 347.037 224.452 346.378C222.363 345.719 221.202 343.493 221.861 341.4C222.52 339.311 224.747 338.15 226.839 338.81C228.926 339.468 230.087 341.695 229.428 343.784Z" fill="#5770D1"/>
<path d="M224.649 351.847L221.157 350.746L220.57 353.279L223.677 354.258L224.649 351.847Z" fill="#5770D1"/>
<path d="M218.372 348.576L216.68 345.328L214.475 346.705L215.979 349.594L218.372 348.576Z" fill="#5770D1"/>
<path d="M216.246 341.824L217.346 338.332L214.813 337.746L213.834 340.852L216.246 341.824Z" fill="#5770D1"/>
<path d="M219.518 335.55L222.766 333.859L221.389 331.652L218.5 333.157L219.518 335.55Z" fill="#5770D1"/>
<path d="M226.268 333.423L229.761 334.524L230.346 331.99L227.24 331.012L226.268 333.423Z" fill="#5770D1"/>
<path d="M232.545 336.693L234.236 339.941L236.442 338.564L234.937 335.676L232.545 336.693Z" fill="#5770D1"/>
<path d="M234.671 343.445L233.57 346.937L236.104 347.524L237.082 344.417L234.671 343.445Z" fill="#5770D1"/>
<path d="M231.399 349.723L228.15 351.415L229.527 353.62L232.416 352.116L231.399 349.723Z" fill="#5770D1"/>
<path d="M242.364 351.569C240.956 350.652 239.072 351.051 238.155 352.457C237.237 353.867 237.637 355.75 239.045 356.668C240.453 357.584 242.334 357.186 243.252 355.777C244.168 354.371 243.772 352.486 242.364 351.569ZM242.943 355.575C242.137 356.813 240.483 357.163 239.247 356.357C238.01 355.553 237.661 353.898 238.466 352.661C239.271 351.425 240.925 351.076 242.162 351.881C243.398 352.686 243.747 354.339 242.943 355.575ZM242.364 351.569C240.956 350.652 239.072 351.051 238.155 352.457C237.237 353.867 237.637 355.75 239.045 356.668C240.453 357.584 242.334 357.186 243.252 355.777C244.168 354.371 243.772 352.486 242.364 351.569ZM242.943 355.575C242.137 356.813 240.483 357.163 239.247 356.357C238.01 355.553 237.661 353.898 238.466 352.661C239.271 351.425 240.925 351.076 242.162 351.881C243.398 352.686 243.747 354.339 242.943 355.575ZM242.364 351.569C240.956 350.652 239.072 351.051 238.155 352.457C237.237 353.867 237.637 355.75 239.045 356.668C240.453 357.584 242.334 357.186 243.252 355.777C244.168 354.371 243.772 352.486 242.364 351.569ZM242.943 355.575C242.137 356.813 240.483 357.163 239.247 356.357C238.01 355.553 237.661 353.898 238.466 352.661C239.271 351.425 240.925 351.076 242.162 351.881C243.398 352.686 243.747 354.339 242.943 355.575ZM244.204 348.746C241.234 346.814 237.263 347.655 235.33 350.621C233.399 353.588 234.236 357.561 237.205 359.492C240.171 361.423 244.144 360.584 246.076 357.617C248.008 354.651 247.17 350.677 244.204 348.746ZM243.649 356.036C242.591 357.661 240.41 358.123 238.787 357.065C237.163 356.008 236.701 353.827 237.759 352.202C238.818 350.576 241 350.117 242.623 351.174C244.245 352.231 244.707 354.412 243.649 356.036ZM243.252 355.777C244.168 354.37 243.772 352.486 242.364 351.57C240.956 350.653 239.072 351.052 238.155 352.458C237.237 353.868 237.637 355.751 239.045 356.669C240.453 357.585 242.334 357.186 243.252 355.777ZM242.943 355.575C242.137 356.813 240.483 357.163 239.247 356.357C238.01 355.553 237.661 353.898 238.466 352.661C239.271 351.425 240.925 351.076 242.162 351.881C243.398 352.686 243.747 354.339 242.943 355.575ZM242.364 351.569C240.956 350.652 239.072 351.051 238.155 352.457C237.237 353.867 237.637 355.75 239.045 356.668C240.453 357.584 242.334 357.186 243.252 355.777C244.168 354.371 243.772 352.486 242.364 351.569ZM242.943 355.575C242.137 356.813 240.483 357.163 239.247 356.357C238.01 355.553 237.661 353.898 238.466 352.661C239.271 351.425 240.925 351.076 242.162 351.881C243.398 352.686 243.747 354.339 242.943 355.575ZM242.364 351.569C240.956 350.652 239.072 351.051 238.155 352.457C237.237 353.867 237.637 355.75 239.045 356.668C240.453 357.584 242.334 357.186 243.252 355.777C244.168 354.371 243.772 352.486 242.364 351.569ZM242.943 355.575C242.137 356.813 240.483 357.163 239.247 356.357C238.01 355.553 237.661 353.898 238.466 352.661C239.271 351.425 240.925 351.076 242.162 351.881C243.398 352.686 243.747 354.339 242.943 355.575Z" fill="#F0F0F5"/>
<path d="M238.384 359.939L236.318 358.594L235.48 360.131L237.318 361.327L238.384 359.939Z" fill="#F0F0F5"/>
<path d="M234.904 356.685L234.395 354.273L232.715 354.768L233.169 356.913L234.904 356.685Z" fill="#F0F0F5"/>
<path d="M234.748 351.919L236.093 349.853L234.556 349.016L233.359 350.853L234.748 351.919Z" fill="#F0F0F5"/>
<path d="M238.003 348.442L240.415 347.933L239.92 346.254L237.775 346.707L238.003 348.442Z" fill="#F0F0F5"/>
<path d="M242.766 348.287L244.831 349.632L245.669 348.095L243.832 346.898L242.766 348.287Z" fill="#F0F0F5"/>
<path d="M246.246 351.54L246.756 353.952L248.434 353.458L247.981 351.312L246.246 351.54Z" fill="#F0F0F5"/>
<path d="M246.402 356.305L245.057 358.371L246.594 359.208L247.79 357.371L246.402 356.305Z" fill="#F0F0F5"/>
<path d="M243.146 359.785L240.734 360.295L241.228 361.973L243.374 361.52L243.146 359.785Z" fill="#F0F0F5"/>
<path d="M287.256 377.331L290.247 377.887L298.8 319.958L295.393 319.332L287.256 377.331Z" fill="#5770D1"/>
<path d="M261.055 368.151L265.496 329.445L295.392 319.332C295.392 319.332 287.255 377.957 287.255 377.331L261.055 368.151Z" fill="#5770D1"/>
<path opacity="0.4" d="M261.055 368.151L265.496 329.445L295.392 319.332C295.392 319.332 287.255 377.957 287.255 377.331L261.055 368.151Z" fill="white"/>
<path d="M188.599 331.01C188.112 327.804 187.849 324.571 187.648 321.336C187.556 319.717 187.515 318.096 187.479 316.476C187.447 314.855 187.419 313.233 187.467 311.611L187.48 311.185L187.895 311.163C193.834 310.844 199.769 310.454 205.712 310.195C211.652 309.901 217.593 309.635 223.539 309.449C217.612 309.986 211.682 310.443 205.751 310.873C199.821 311.337 193.885 311.669 187.953 312.074L188.38 311.625L188.355 316.466L188.412 321.309C188.42 322.925 188.449 324.54 188.496 326.156L188.599 331.01Z" fill="white"/>
<path d="M269.668 330.01C271.52 329.13 273.401 328.312 275.304 327.558C277.202 326.785 279.117 326.054 281.054 325.383C282.994 324.72 284.941 324.071 286.921 323.521C288.897 322.965 290.891 322.451 292.929 322.117L293.43 322.035L293.341 322.514C292.872 325.02 292.381 327.522 291.801 330.01C292.018 327.465 292.325 324.932 292.653 322.405L293.065 322.801C291.09 323.272 289.131 323.823 287.177 324.4C285.226 324.984 283.28 325.599 281.34 326.23L269.668 330.01Z" fill="white"/>
<path opacity="0.1" d="M201.537 308.438L202.041 318.119L202.471 327.802L203.218 347.174L203.802 366.551L204.035 376.242L204.194 385.935L203.69 376.254L203.259 366.57L202.514 347.198L201.932 327.821L201.698 318.131L201.537 308.438Z" fill="#2F313F"/>
<path opacity="0.1" d="M198.764 314.273C198.95 315.107 198.456 316.102 197.515 316.378C197.059 316.515 196.525 316.47 196.08 316.216C195.636 315.964 195.308 315.503 195.202 314.992C195.102 314.479 195.224 313.927 195.536 313.522C195.846 313.114 196.324 312.865 196.797 312.816C197.772 312.707 198.613 313.434 198.764 314.273ZM198.764 314.273C198.675 313.852 198.404 313.475 198.037 313.272C197.668 313.069 197.233 313.044 196.866 313.163C196.111 313.409 195.749 314.203 195.892 314.853C196.012 315.507 196.653 316.104 197.445 316.035C197.829 316.002 198.221 315.81 198.481 315.48C198.742 315.15 198.845 314.696 198.764 314.273Z" fill="#2F313F"/>
<path opacity="0.1" d="M199.43 325.883C199.616 326.717 199.122 327.711 198.181 327.988C197.725 328.125 197.191 328.08 196.746 327.826C196.302 327.573 195.974 327.112 195.868 326.601C195.768 326.089 195.89 325.536 196.202 325.131C196.512 324.724 196.99 324.475 197.463 324.425C198.438 324.316 199.279 325.043 199.43 325.883ZM199.43 325.883C199.341 325.462 199.07 325.085 198.703 324.882C198.334 324.679 197.899 324.653 197.532 324.773C196.777 325.018 196.416 325.813 196.558 326.463C196.678 327.116 197.319 327.713 198.111 327.644C198.495 327.612 198.887 327.419 199.148 327.089C199.408 326.759 199.512 326.306 199.43 325.883Z" fill="#2F313F"/>
<path opacity="0.1" d="M199.854 338.203C200.04 339.037 199.546 340.031 198.605 340.308C198.149 340.445 197.615 340.4 197.17 340.146C196.726 339.893 196.398 339.433 196.292 338.921C196.192 338.41 196.314 337.856 196.626 337.451C196.936 337.043 197.414 336.795 197.886 336.745C198.862 336.636 199.703 337.364 199.854 338.203ZM199.854 338.203C199.765 337.782 199.494 337.405 199.126 337.202C198.758 336.999 198.323 336.974 197.956 337.093C197.201 337.338 196.839 338.133 196.982 338.782C197.102 339.436 197.743 340.032 198.535 339.964C198.919 339.931 199.311 339.739 199.571 339.408C199.832 339.078 199.935 338.626 199.854 338.203Z" fill="#2F313F"/>
<path opacity="0.1" d="M200.276 350.523C200.462 351.357 199.967 352.352 199.027 352.628C198.571 352.765 198.037 352.72 197.592 352.466C197.147 352.214 196.819 351.753 196.714 351.242C196.614 350.729 196.736 350.177 197.048 349.772C197.358 349.364 197.835 349.115 198.308 349.066C199.284 348.957 200.124 349.684 200.276 350.523ZM200.276 350.523C200.186 350.102 199.917 349.725 199.548 349.522C199.18 349.319 198.745 349.294 198.378 349.413C197.623 349.659 197.261 350.453 197.404 351.103C197.523 351.757 198.165 352.354 198.957 352.285C199.34 352.252 199.732 352.06 199.993 351.73C200.254 351.4 200.357 350.946 200.276 350.523Z" fill="#2F313F"/>
<path opacity="0.1" d="M200.7 362.848C200.886 363.682 200.391 364.676 199.45 364.952C198.994 365.09 198.461 365.044 198.016 364.791C197.571 364.538 197.243 364.077 197.138 363.566C197.037 363.054 197.16 362.501 197.472 362.096C197.782 361.689 198.259 361.44 198.732 361.39C199.708 361.281 200.548 362.007 200.7 362.848ZM200.7 362.848C200.61 362.427 200.34 362.05 199.972 361.847C199.604 361.644 199.168 361.618 198.802 361.738C198.047 361.983 197.685 362.777 197.828 363.428C197.947 364.082 198.588 364.678 199.381 364.609C199.764 364.576 200.156 364.385 200.418 364.054C200.678 363.723 200.78 363.27 200.7 362.848Z" fill="#2F313F"/>
<path opacity="0.1" d="M201.123 375.168C201.31 376.002 200.815 376.996 199.874 377.273C199.418 377.41 198.884 377.365 198.44 377.111C197.995 376.858 197.667 376.398 197.562 375.886C197.461 375.375 197.583 374.821 197.895 374.416C198.206 374.008 198.682 373.76 199.156 373.71C200.132 373.601 200.971 374.329 201.123 375.168ZM201.123 375.168C201.034 374.747 200.763 374.37 200.396 374.167C200.027 373.964 199.592 373.939 199.226 374.058C198.471 374.303 198.109 375.098 198.252 375.748C198.371 376.402 199.012 376.998 199.805 376.93C200.188 376.897 200.58 376.704 200.841 376.374C201.102 376.043 201.204 375.591 201.123 375.168Z" fill="#2F313F"/>
<path d="M204.928 394.011L160.865 407.363L162.425 412.512L206.488 399.159L204.928 394.011Z" fill="#5770D1"/>
<path opacity="0.4" d="M204.928 394.011L160.865 407.363L162.425 412.512L206.488 399.159L204.928 394.011Z" fill="white"/>
<path d="M183.846 398.651L178.719 400.281L181.141 407.897L186.268 406.266L183.846 398.651Z" fill="#5770D1"/>
<path d="M162.08 420.053L150.71 370.816L116.391 378.953L133.29 426.937L162.08 420.053Z" fill="#5770D1"/>
<path d="M169.696 417.549L162.081 420.053L150.711 370.816L161.664 373.424L169.696 417.549Z" fill="#5770D1"/>
<path opacity="0.2" d="M169.696 417.549L162.081 420.053L150.711 370.816L161.664 373.424L169.696 417.549Z" fill="#2F313F"/>
<path d="M205.726 402.425C208.952 402.425 211.567 399.809 211.567 396.583C211.567 393.357 208.952 390.742 205.726 390.742C202.5 390.742 199.885 393.357 199.885 396.583C199.885 399.809 202.5 402.425 205.726 402.425Z" fill="#5770D1"/>
<path d="M265.833 393.867L264.262 399.012L308.296 412.456L309.867 407.311L265.833 393.867Z" fill="#5770D1"/>
<path opacity="0.4" d="M265.833 393.867L264.262 399.012L308.296 412.456L309.867 407.311L265.833 393.867Z" fill="white"/>
<path d="M286.945 398.531L284.506 406.141L289.629 407.782L292.068 400.173L286.945 398.531Z" fill="#5770D1"/>
<path d="M308.654 420.01L320.13 370.797L354.431 379.007L337.431 426.955L308.654 420.01Z" fill="#5770D1"/>
<path d="M301.045 417.49L308.654 420.01L320.13 370.797L309.171 373.382L301.045 417.49Z" fill="#5770D1"/>
<path opacity="0.2" d="M301.045 417.49L308.654 420.01L320.13 370.797L309.171 373.382L301.045 417.49Z" fill="#2F313F"/>
<path d="M259.217 396.434C259.21 399.66 261.82 402.281 265.046 402.289C268.272 402.295 270.893 399.686 270.9 396.46C270.907 393.234 268.297 390.613 265.071 390.605C261.844 390.598 259.223 393.208 259.217 396.434Z" fill="#5770D1"/>
<path d="M303.302 335.705C303.44 335.575 317.593 322.448 334.242 326.938C351.268 331.532 365.324 357.175 365.463 357.435L370.195 354.877C369.581 353.739 354.919 326.936 335.642 321.746C316.036 316.458 300.258 331.178 299.596 331.807L303.302 335.705Z" fill="#5770D1"/>
<path opacity="0.4" d="M303.302 335.705C303.44 335.575 317.593 322.448 334.242 326.938C351.268 331.532 365.324 357.175 365.463 357.435L370.195 354.877C369.581 353.739 354.919 326.936 335.642 321.746C316.036 316.458 300.258 331.178 299.596 331.807L303.302 335.705Z" fill="white"/>
<path d="M359.189 383.251L369.385 377.868C368.406 376.015 367.201 372.831 367.026 369.955C366.8 366.229 368.278 364.919 369.909 364.057C373.481 362.17 375.613 362.918 377.069 363.776C379.112 364.982 381.189 367.449 382.918 370.724L393.113 365.342C390.323 360.057 386.897 356.19 382.929 353.847C378.971 351.514 372.566 349.618 364.527 353.862C358.261 357.169 355.062 363.134 355.52 370.655C355.879 376.573 358.42 381.792 359.189 383.251Z" fill="#5770D1"/>
<path d="M305.451 317.741C307.661 316.215 309.923 314.776 312.193 313.351C314.457 311.918 316.759 310.547 319.061 309.177C321.375 307.826 323.689 306.477 326.041 305.19L329.57 303.263C330.763 302.65 331.94 302.01 333.149 301.422C332.049 302.194 330.919 302.913 329.804 303.66L326.408 305.813C324.143 307.246 321.842 308.617 319.539 309.985C317.225 311.335 314.91 312.684 312.559 313.97C310.212 315.267 307.858 316.548 305.451 317.741Z" fill="#001054"/>
<path d="M299.596 339.738C302.76 341.541 305.759 343.576 308.718 345.668C311.661 347.783 314.561 349.955 317.295 352.362C314.129 350.56 311.13 348.525 308.172 346.432C305.232 344.316 302.331 342.144 299.596 339.738Z" fill="#001054"/>
<path d="M304.793 337.031C307.235 337.773 309.64 338.611 312.038 339.464C314.44 340.306 316.817 341.218 319.192 342.13C321.56 343.062 323.927 343.997 326.267 344.999L329.777 346.505C330.934 347.038 332.104 347.542 333.251 348.104C332.027 347.742 330.823 347.322 329.61 346.934L326.005 345.673C323.602 344.829 321.226 343.919 318.852 343.006C316.485 342.072 314.117 341.138 311.777 340.135C309.433 339.142 307.095 338.135 304.793 337.031Z" fill="#001054"/>
<path d="M311.73 319.805C314.071 319.197 316.429 318.69 318.79 318.199C321.148 317.697 323.521 317.268 325.893 316.839C328.268 316.432 330.644 316.026 333.033 315.693L336.616 315.195C337.816 315.064 339.011 314.9 340.217 314.797C339.049 315.111 337.87 315.365 336.696 315.649L333.158 316.404C330.798 316.905 328.427 317.335 326.055 317.763C323.679 318.168 321.303 318.574 318.915 318.907C316.528 319.252 314.138 319.58 311.73 319.805Z" fill="#001054"/>
<path d="M255.324 334.441C255.721 332.539 256.359 330.685 257.184 328.918C258.011 327.153 259.022 325.46 260.291 323.955C261.564 322.466 263.13 321.153 265.015 320.426C266.899 319.724 269.057 319.73 270.947 320.484C272.86 321.23 274.369 322.837 275.182 324.685C275.604 325.608 275.868 326.598 275.977 327.61C276.072 328.621 276.031 329.672 275.629 330.681C275.424 331.178 275.104 331.679 274.59 332.013C274.342 332.185 274.039 332.284 273.741 332.33C273.447 332.373 273.147 332.359 272.804 332.241C272.176 331.973 271.861 331.467 271.59 331.011C271.348 330.538 271.162 330.053 271.035 329.563C270.507 327.601 270.454 325.605 270.547 323.632C270.827 319.702 271.859 315.771 273.977 312.389C275.045 310.718 276.386 309.179 278.052 308.055C279.697 306.923 281.624 306.144 283.59 305.918C284.557 305.684 285.556 305.706 286.544 305.658C287.04 305.605 287.531 305.725 288.025 305.751C288.515 305.816 289.017 305.807 289.493 305.949C291.447 306.3 293.282 307.084 294.997 308.032C296.701 309.014 298.219 310.276 299.605 311.645C300.978 313.027 302.227 314.54 303.231 316.205C301.008 313.033 298.146 310.279 294.771 308.434C293.073 307.552 291.278 306.827 289.388 306.534C288.926 306.405 288.442 306.428 287.97 306.375C287.496 306.361 287.023 306.253 286.547 306.317C285.599 306.386 284.644 306.382 283.718 306.631C281.823 306.898 280.065 307.66 278.518 308.722C276.963 309.786 275.709 311.246 274.701 312.844C272.706 316.077 271.728 319.895 271.485 323.689C271.378 325.585 271.426 327.523 271.9 329.324C272.127 330.185 272.534 331.155 273.127 331.427C273.203 331.434 273.254 331.475 273.346 331.478C273.438 331.47 273.537 331.491 273.624 331.468C273.803 331.439 273.977 331.391 274.126 331.284C274.434 331.09 274.679 330.746 274.843 330.352C275.173 329.553 275.233 328.605 275.151 327.692C275.059 326.774 274.824 325.862 274.444 325.016C273.7 323.325 272.381 321.864 270.673 321.148C268.973 320.426 266.983 320.368 265.219 320.982C263.446 321.618 261.915 322.84 260.638 324.257C258.077 327.124 256.35 330.71 255.324 334.441Z" fill="#001054"/>
<path d="M168.465 358.801C169.372 357.091 170.706 355.612 172.263 354.443C173.819 353.273 175.605 352.366 177.527 351.921C179.439 351.464 181.493 351.456 183.406 352.037C185.32 352.609 187.044 353.732 188.424 355.162C189.813 356.59 190.852 358.326 191.565 360.171C192.266 362.02 192.686 364 192.537 366.026C192.437 367.023 192.235 368.099 191.446 368.961C191.055 369.385 190.451 369.665 189.862 369.674C189.296 369.669 188.761 369.585 188.242 369.308C187.726 369.042 187.313 368.579 187.077 368.068C186.837 367.556 186.748 367.013 186.723 366.489C186.686 365.436 186.913 364.436 187.223 363.484C187.853 361.579 188.889 359.863 190.1 358.307C191.317 356.753 192.75 355.369 194.355 354.217C197.54 351.904 201.597 350.62 205.554 351.137C207.508 351.402 209.446 351.966 211.156 352.962C212.881 353.925 214.376 355.263 215.596 356.792C216.814 358.327 217.763 360.051 218.494 361.849C219.226 363.647 219.765 365.524 220.03 367.44C219.241 363.673 217.692 360.015 215.224 357.095C214.002 355.636 212.529 354.384 210.858 353.502C209.201 352.587 207.341 352.096 205.47 351.887C201.71 351.478 197.895 352.676 194.862 354.921C191.832 357.15 189.354 360.26 188.101 363.779C187.805 364.656 187.599 365.573 187.627 366.457C187.647 367.334 187.956 368.176 188.66 368.531C188.992 368.722 189.442 368.796 189.835 368.803C190.216 368.793 190.554 368.641 190.826 368.36C191.375 367.788 191.61 366.851 191.693 365.953C191.841 364.116 191.461 362.216 190.804 360.461C190.138 358.702 189.15 357.06 187.871 355.687C186.596 354.316 184.988 353.246 183.21 352.664C181.434 352.073 179.487 352.024 177.637 352.416C173.937 353.203 170.507 355.517 168.465 358.801Z" fill="#001054"/>
<path d="M124.975 131.796C124.869 127.928 124.048 124.033 122.248 120.64C121.347 118.959 120.151 117.406 118.581 116.366C117.014 115.349 115.068 114.93 113.246 115.226C111.416 115.513 109.787 116.618 108.66 118.081C108.09 118.813 107.643 119.641 107.335 120.511C107.036 121.378 106.869 122.312 106.998 123.167C107.063 123.589 107.218 123.981 107.472 124.243C107.593 124.383 107.75 124.471 107.916 124.542C107.996 124.584 108.096 124.588 108.184 124.617C108.274 124.636 108.332 124.609 108.408 124.62C109.049 124.498 109.677 123.653 110.101 122.871C110.992 121.235 111.501 119.364 111.85 117.498C112.518 113.755 112.481 109.814 111.314 106.199C110.718 104.406 109.848 102.689 108.592 101.285C107.343 99.8848 105.818 98.7249 104.041 98.0133C103.202 97.5508 102.273 97.328 101.369 97.0329C100.922 96.858 100.437 96.8505 99.9729 96.7499C99.502 96.6888 99.0376 96.5516 98.5582 96.5657C96.6528 96.3993 94.7371 96.6747 92.8769 97.1269C89.1592 98.1129 85.7225 100.104 82.8066 102.654C84.179 101.277 85.7526 100.106 87.4164 99.0905C89.0887 98.0923 90.8634 97.2303 92.7528 96.6823C94.6431 96.17 96.6143 95.8466 98.5939 95.9726C99.0912 95.9481 99.5753 96.0769 100.067 96.1305C100.552 96.2226 101.059 96.2235 101.527 96.3927C102.474 96.6757 103.451 96.8928 104.334 97.3506C106.189 98.0387 107.874 99.255 109.201 100.747C110.551 102.236 111.485 104.05 112.124 105.928C113.374 109.717 113.437 113.782 112.771 117.665C112.391 119.603 111.862 121.528 110.882 123.308C110.641 123.753 110.344 124.18 109.997 124.582C109.626 124.96 109.199 125.377 108.525 125.487C108.164 125.52 107.87 125.46 107.594 125.349C107.316 125.233 107.045 125.066 106.845 124.838C106.427 124.392 106.234 123.829 106.154 123.298C106.004 122.223 106.215 121.193 106.549 120.233C106.896 119.275 107.39 118.377 108.019 117.582C109.25 115.982 111.099 114.781 113.134 114.514C115.15 114.232 117.246 114.742 118.909 115.874C120.566 117.029 121.773 118.679 122.654 120.429C123.527 122.193 124.105 124.079 124.486 125.99C124.866 127.902 125.044 129.854 124.975 131.796Z" fill="#001054"/>
<path d="M332.544 180.828C328.758 180.029 324.779 179.918 321.059 180.877C319.215 181.362 317.426 182.162 316.047 183.445C314.693 184.731 313.832 186.527 313.693 188.368C313.546 190.214 314.239 192.057 315.4 193.493C315.978 194.219 316.68 194.846 317.453 195.349C318.226 195.841 319.096 196.223 319.958 196.296C320.383 196.331 320.801 196.272 321.115 196.086C321.278 196.003 321.4 195.87 321.508 195.726C321.569 195.658 321.596 195.561 321.645 195.483C321.684 195.4 321.671 195.336 321.7 195.266C321.731 194.614 321.055 193.807 320.395 193.212C319.012 191.966 317.31 191.033 315.578 190.258C312.095 188.736 308.254 187.852 304.465 188.143C302.583 188.304 300.71 188.75 299.052 189.643C297.398 190.53 295.915 191.743 294.809 193.304C294.163 194.013 293.73 194.864 293.232 195.674C292.958 196.068 292.838 196.537 292.632 196.965C292.462 197.409 292.22 197.828 292.123 198.297C291.517 200.112 291.337 202.039 291.343 203.952C291.434 207.797 292.569 211.604 294.368 215.035C293.349 213.38 292.577 211.576 291.978 209.721C291.398 207.862 290.974 205.935 290.882 203.969C290.826 202.011 290.971 200.019 291.555 198.123C291.648 197.635 291.885 197.193 292.053 196.728C292.256 196.277 292.375 195.785 292.649 195.369C293.145 194.514 293.584 193.615 294.235 192.863C295.338 191.219 296.913 189.866 298.673 188.923C300.437 187.957 302.418 187.472 304.394 187.289C308.37 186.959 312.338 187.845 315.958 189.398C317.754 190.22 319.503 191.183 321.004 192.553C321.381 192.89 321.727 193.279 322.037 193.711C322.318 194.159 322.622 194.672 322.573 195.353C322.521 195.711 322.394 195.985 322.222 196.227C322.044 196.47 321.817 196.695 321.55 196.836C321.019 197.138 320.426 197.194 319.891 197.148C318.81 197.042 317.858 196.597 317.002 196.049C316.152 195.488 315.394 194.799 314.767 194.001C313.498 192.431 312.762 190.352 312.976 188.312C313.173 186.286 314.158 184.366 315.646 183.013C317.155 181.672 319.041 180.883 320.948 180.435C322.868 179.997 324.836 179.875 326.784 179.95C328.732 180.026 330.672 180.309 332.544 180.828Z" fill="#001054"/>
<path d="M274.348 120.013C273.705 117.787 273.618 115.405 273.98 113.104C274.34 110.804 275.119 108.542 276.392 106.56C277.646 104.577 279.395 102.861 281.511 101.768C283.622 100.666 286.026 100.188 288.393 100.26C290.767 100.324 293.1 100.939 295.248 101.918C297.386 102.912 299.396 104.254 300.951 106.101C301.693 107.03 302.409 108.114 302.453 109.475C302.471 110.147 302.199 110.865 301.717 111.352C301.239 111.809 300.717 112.18 300.06 112.371C299.414 112.57 298.694 112.521 298.079 112.286C297.459 112.053 296.938 111.67 296.486 111.247C295.584 110.388 294.946 109.348 294.418 108.28C293.371 106.133 292.82 103.803 292.555 101.465C292.297 99.1239 292.364 96.7466 292.771 94.4239C293.556 89.7916 295.944 85.3181 299.746 82.453C301.631 81.0458 303.753 79.9065 306.042 79.3265C308.317 78.7052 310.711 78.5952 313.03 78.8782C315.355 79.1658 317.611 79.8398 319.744 80.76C321.877 81.6812 323.913 82.8299 325.751 84.2399C321.932 81.6568 317.543 79.8069 312.978 79.3557C310.706 79.1244 308.388 79.2795 306.207 79.9215C304.012 80.5231 301.998 81.6596 300.21 83.0489C298.443 84.4636 296.939 86.2036 295.84 88.1823C294.731 90.1563 294.008 92.338 293.625 94.5733C292.893 99.0365 293.366 103.79 295.25 107.876C295.736 108.881 296.331 109.846 297.108 110.592C297.869 111.334 298.874 111.821 299.815 111.523C300.277 111.403 300.732 111.084 301.088 110.748C301.421 110.407 301.593 109.965 301.588 109.479C301.576 108.492 300.981 107.485 300.294 106.638C298.87 104.927 296.946 103.616 294.904 102.659C292.851 101.707 290.62 101.125 288.365 101.023C286.113 100.919 283.828 101.353 281.808 102.354C279.784 103.344 278.071 104.943 276.815 106.837C274.307 110.629 273.324 115.495 274.348 120.013Z" fill="#001054"/>
<path d="M165.32 359.01C163.214 358.346 160.97 359.515 160.306 361.62C159.642 363.728 160.812 365.97 162.919 366.635C165.023 367.298 167.265 366.13 167.929 364.024C168.592 361.919 167.425 359.672 165.32 359.01ZM167.465 363.876C166.883 365.727 164.912 366.753 163.064 366.17C161.215 365.588 160.189 363.618 160.773 361.767C161.355 359.919 163.325 358.892 165.176 359.476C167.022 360.058 168.048 362.027 167.465 363.876ZM165.32 359.01C163.214 358.346 160.97 359.515 160.306 361.62C159.642 363.728 160.812 365.97 162.919 366.635C165.023 367.298 167.265 366.13 167.929 364.024C168.592 361.919 167.425 359.672 165.32 359.01ZM167.465 363.876C166.883 365.727 164.912 366.753 163.064 366.17C161.215 365.588 160.189 363.618 160.773 361.767C161.355 359.919 163.325 358.892 165.176 359.476C167.022 360.058 168.048 362.027 167.465 363.876ZM165.32 359.01C163.214 358.346 160.97 359.515 160.306 361.62C159.642 363.728 160.812 365.97 162.919 366.635C165.023 367.298 167.265 366.13 167.929 364.024C168.592 361.919 167.425 359.672 165.32 359.01ZM167.465 363.876C166.883 365.727 164.912 366.753 163.064 366.17C161.215 365.588 160.189 363.618 160.773 361.767C161.355 359.919 163.325 358.892 165.176 359.476C167.022 360.058 168.048 362.027 167.465 363.876ZM166.652 354.786C162.211 353.387 157.482 355.855 156.083 360.29C154.685 364.727 157.148 369.46 161.587 370.857C166.022 372.254 170.754 369.79 172.152 365.353C173.552 360.919 171.088 356.183 166.652 354.786ZM168.523 364.209C167.757 366.64 165.16 367.993 162.732 367.228C160.304 366.463 158.949 363.865 159.715 361.435C160.481 359.005 163.08 357.653 165.508 358.418C167.934 359.183 169.288 361.781 168.523 364.209ZM167.929 364.023C168.592 361.918 167.425 359.672 165.32 359.009C163.214 358.345 160.97 359.514 160.306 361.619C159.642 363.727 160.812 365.969 162.919 366.634C165.023 367.298 167.265 366.129 167.929 364.023ZM167.465 363.876C166.883 365.727 164.912 366.753 163.064 366.17C161.215 365.588 160.189 363.618 160.773 361.767C161.355 359.919 163.325 358.892 165.176 359.476C167.022 360.058 168.048 362.027 167.465 363.876ZM165.32 359.01C163.214 358.346 160.97 359.515 160.306 361.62C159.642 363.728 160.812 365.97 162.919 366.635C165.023 367.298 167.265 366.13 167.929 364.024C168.592 361.919 167.425 359.672 165.32 359.01ZM167.465 363.876C166.883 365.727 164.912 366.753 163.064 366.17C161.215 365.588 160.189 363.618 160.773 361.767C161.355 359.919 163.325 358.892 165.176 359.476C167.022 360.058 168.048 362.027 167.465 363.876ZM165.32 359.01C163.214 358.346 160.97 359.515 160.306 361.62C159.642 363.728 160.812 365.97 162.919 366.635C165.023 367.298 167.265 366.13 167.929 364.024C168.592 361.919 167.425 359.672 165.32 359.01ZM167.465 363.876C166.883 365.727 164.912 366.753 163.064 366.17C161.215 365.588 160.189 363.618 160.773 361.767C161.355 359.919 163.325 358.892 165.176 359.476C167.022 360.058 168.048 362.027 167.465 363.876Z" fill="#B4B4DB"/>
<path d="M163.237 371.008L160.147 370.035L159.629 372.276L162.377 373.142L163.237 371.008Z" fill="#B4B4DB"/>
<path d="M157.685 368.116L156.189 365.242L154.238 366.46L155.568 369.016L157.685 368.116Z" fill="#B4B4DB"/>
<path d="M155.805 362.143L156.779 359.053L154.538 358.535L153.672 361.283L155.805 362.143Z" fill="#B4B4DB"/>
<path d="M158.699 356.592L161.572 355.096L160.354 353.145L157.799 354.476L158.699 356.592Z" fill="#B4B4DB"/>
<path d="M164.67 354.711L167.76 355.684L168.279 353.444L165.53 352.578L164.67 354.711Z" fill="#B4B4DB"/>
<path d="M170.223 357.603L171.719 360.476L173.671 359.258L172.34 356.703L170.223 357.603Z" fill="#B4B4DB"/>
<path d="M172.105 363.578L171.131 366.668L173.372 367.187L174.238 364.438L172.105 363.578Z" fill="#B4B4DB"/>
<path d="M169.21 369.129L166.336 370.625L167.554 372.577L170.11 371.246L169.21 369.129Z" fill="#B4B4DB"/>
<path d="M321.173 332.151C325.41 326.442 324.216 318.376 318.507 314.139C312.795 309.901 304.729 311.095 300.493 316.803C296.254 322.515 297.448 330.581 303.159 334.819C308.868 339.057 316.934 337.864 321.173 332.151ZM315.661 328.061C313.681 330.73 309.916 331.288 307.249 329.309C304.581 327.328 304.023 323.564 306.004 320.894C307.982 318.227 311.748 317.67 314.417 319.65C317.083 321.63 317.64 325.395 315.661 328.061Z" fill="#001054"/>
<path d="M305.464 335.865L301.488 332.914L299.619 335.892L303.155 338.516L305.464 335.865Z" fill="#001054"/>
<path d="M298.891 328.906L298.166 324.008L294.738 324.792L295.383 329.149L298.891 328.906Z" fill="#001054"/>
<path d="M299.161 319.341L302.112 315.365L299.134 313.496L296.51 317.032L299.161 319.341Z" fill="#001054"/>
<path d="M306.118 312.766L311.016 312.041L310.232 308.613L305.875 309.258L306.118 312.766Z" fill="#001054"/>
<path d="M315.686 313.038L319.662 315.989L321.53 313.011L317.994 310.387L315.686 313.038Z" fill="#001054"/>
<path d="M322.258 319.993L322.983 324.891L326.41 324.107L325.765 319.75L322.258 319.993Z" fill="#001054"/>
<path d="M321.989 329.559L319.037 333.535L322.015 335.404L324.64 331.867L321.989 329.559Z" fill="#001054"/>
<path d="M315.031 336.133L310.133 336.858L310.917 340.285L315.274 339.641L315.031 336.133Z" fill="#001054"/>
<path d="M306.221 325.096L308.956 328.546L313.312 327.899L314.929 323.807L312.196 320.359L307.84 321.002L306.221 325.096ZM311.406 323.331C312.026 323.791 312.155 324.663 311.694 325.283C311.236 325.901 310.362 326.032 309.742 325.572C309.124 325.113 308.995 324.237 309.453 323.619C309.914 323 310.788 322.873 311.406 323.331Z" fill="#001054"/>
<path d="M330.827 81.405C328.984 80.824 327.02 81.8477 326.439 83.6892C325.858 85.5344 326.882 87.4962 328.725 88.0771C330.567 88.658 332.528 87.6353 333.109 85.7919C333.69 83.9505 332.669 81.9849 330.827 81.405ZM332.704 85.6632C332.194 87.2828 330.471 88.1805 328.852 87.671C327.234 87.1615 326.337 85.4376 326.846 83.8179C327.356 82.2002 329.08 81.3025 330.699 81.812C332.316 82.3215 333.215 84.0454 332.704 85.6632ZM330.827 81.405C328.984 80.824 327.02 81.8477 326.439 83.6892C325.858 85.5344 326.882 87.4962 328.725 88.0771C330.567 88.658 332.528 87.6353 333.109 85.7919C333.69 83.9505 332.669 81.9849 330.827 81.405ZM332.704 85.6632C332.194 87.2828 330.471 88.1805 328.852 87.671C327.234 87.1615 326.337 85.4376 326.846 83.8179C327.356 82.2002 329.08 81.3025 330.699 81.812C332.316 82.3215 333.215 84.0454 332.704 85.6632ZM330.827 81.405C328.984 80.824 327.02 81.8477 326.439 83.6892C325.858 85.5344 326.882 87.4962 328.725 88.0771C330.567 88.658 332.528 87.6353 333.109 85.7919C333.69 83.9505 332.669 81.9849 330.827 81.405ZM332.704 85.6632C332.194 87.2828 330.471 88.1805 328.852 87.671C327.234 87.1615 326.337 85.4376 326.846 83.8179C327.356 82.2002 329.08 81.3025 330.699 81.812C332.316 82.3215 333.215 84.0454 332.704 85.6632ZM331.994 77.7098C328.108 76.4859 323.969 78.6451 322.745 82.5254C321.522 86.4076 323.676 90.5493 327.561 91.7722C331.443 92.9952 335.583 90.8388 336.806 86.9557C338.03 83.0753 335.874 78.9318 331.994 77.7098ZM333.63 85.9546C332.96 88.0808 330.687 89.2662 328.562 88.596C326.436 87.9257 325.252 85.6528 325.922 83.5265C326.592 81.4003 328.867 80.2168 330.992 80.887C333.115 81.5563 334.299 83.8292 333.63 85.9546ZM333.11 85.7919C333.691 83.9505 332.669 81.9849 330.828 81.405C328.985 80.824 327.021 81.8477 326.44 83.6892C325.859 85.5344 326.883 87.4962 328.726 88.0771C330.568 88.6571 332.529 87.6353 333.11 85.7919ZM332.704 85.6632C332.194 87.2828 330.471 88.1805 328.852 87.671C327.234 87.1615 326.337 85.4376 326.846 83.8179C327.356 82.2002 329.08 81.3025 330.699 81.812C332.316 82.3215 333.215 84.0454 332.704 85.6632ZM330.827 81.405C328.984 80.824 327.02 81.8477 326.439 83.6892C325.858 85.5344 326.882 87.4962 328.725 88.0771C330.567 88.658 332.528 87.6353 333.109 85.7919C333.69 83.9505 332.669 81.9849 330.827 81.405ZM332.704 85.6632C332.194 87.2828 330.471 88.1805 328.852 87.671C327.234 87.1615 326.337 85.4376 326.846 83.8179C327.356 82.2002 329.08 81.3025 330.699 81.812C332.316 82.3215 333.215 84.0454 332.704 85.6632ZM330.827 81.405C328.984 80.824 327.02 81.8477 326.439 83.6892C325.858 85.5344 326.882 87.4962 328.725 88.0771C330.567 88.658 332.528 87.6353 333.109 85.7919C333.69 83.9505 332.669 81.9849 330.827 81.405ZM332.704 85.6632C332.194 87.2828 330.471 88.1805 328.852 87.671C327.234 87.1615 326.337 85.4376 326.846 83.8179C327.356 82.2002 329.08 81.3025 330.699 81.812C332.316 82.3215 333.215 84.0454 332.704 85.6632Z" fill="#001054"/>
<path d="M329.002 91.9063L326.299 91.0547L325.846 93.0155L328.25 93.7732L329.002 91.9063Z" fill="#001054"/>
<path d="M324.143 89.3729L322.834 86.8594L321.127 87.9244L322.292 90.1607L324.143 89.3729Z" fill="#001054"/>
<path d="M322.499 84.1487L323.351 81.4453L321.39 80.9922L320.633 83.3967L322.499 84.1487Z" fill="#001054"/>
<path d="M325.03 79.2899L327.544 77.9805L326.478 76.2734L324.242 77.4381L325.03 79.2899Z" fill="#001054"/>
<path d="M330.258 77.6442L332.961 78.4958L333.415 76.535L331.011 75.7773L330.258 77.6442Z" fill="#001054"/>
<path d="M335.117 80.1783L336.427 82.6928L338.134 81.6269L336.969 79.3906L335.117 80.1783Z" fill="#001054"/>
<path d="M336.762 85.4023L335.91 88.1058L337.871 88.5598L338.629 86.1553L336.762 85.4023Z" fill="#001054"/>
<path d="M334.228 90.2617L331.715 91.5711L332.78 93.2782L335.016 92.1135L334.228 90.2617Z" fill="#001054"/>
<path d="M294.904 215.698C293.061 215.117 291.097 216.141 290.516 217.982C289.935 219.827 290.959 221.789 292.802 222.37C294.644 222.951 296.606 221.928 297.187 220.085C297.766 218.243 296.746 216.278 294.904 215.698ZM296.78 219.956C296.27 221.576 294.547 222.473 292.929 221.964C291.312 221.454 290.414 219.731 290.923 218.111C291.433 216.493 293.157 215.595 294.776 216.105C296.392 216.614 297.291 218.338 296.78 219.956ZM294.904 215.698C293.061 215.117 291.097 216.141 290.516 217.982C289.935 219.827 290.959 221.789 292.802 222.37C294.644 222.951 296.606 221.928 297.187 220.085C297.766 218.243 296.746 216.278 294.904 215.698ZM296.78 219.956C296.27 221.576 294.547 222.473 292.929 221.964C291.312 221.454 290.414 219.731 290.923 218.111C291.433 216.493 293.157 215.595 294.776 216.105C296.392 216.614 297.291 218.338 296.78 219.956ZM294.904 215.698C293.061 215.117 291.097 216.141 290.516 217.982C289.935 219.827 290.959 221.789 292.802 222.37C294.644 222.951 296.606 221.928 297.187 220.085C297.766 218.243 296.746 216.278 294.904 215.698ZM296.78 219.956C296.27 221.576 294.547 222.473 292.929 221.964C291.312 221.454 290.414 219.731 290.923 218.111C291.433 216.493 293.157 215.595 294.776 216.105C296.392 216.614 297.291 218.338 296.78 219.956ZM296.07 212.003C292.184 210.779 288.045 212.938 286.821 216.818C285.598 220.702 287.753 224.842 291.638 226.065C295.519 227.288 299.66 225.132 300.883 221.249C302.106 217.368 299.95 213.225 296.07 212.003ZM297.706 220.248C297.036 222.374 294.763 223.559 292.638 222.889C290.513 222.22 289.328 219.946 289.998 217.82C290.669 215.693 292.943 214.51 295.068 215.18C297.191 215.849 298.376 218.122 297.706 220.248ZM297.187 220.085C297.766 218.243 296.746 216.278 294.904 215.698C293.061 215.117 291.097 216.141 290.516 217.982C289.935 219.827 290.959 221.789 292.802 222.37C294.644 222.951 296.606 221.928 297.187 220.085ZM296.78 219.956C296.27 221.576 294.547 222.473 292.929 221.964C291.312 221.454 290.414 219.731 290.923 218.111C291.433 216.493 293.157 215.595 294.776 216.105C296.392 216.614 297.291 218.338 296.78 219.956ZM294.904 215.698C293.061 215.117 291.097 216.141 290.516 217.982C289.935 219.827 290.959 221.789 292.802 222.37C294.644 222.951 296.606 221.928 297.187 220.085C297.766 218.243 296.746 216.278 294.904 215.698ZM296.78 219.956C296.27 221.576 294.547 222.473 292.929 221.964C291.312 221.454 290.414 219.731 290.923 218.111C291.433 216.493 293.157 215.595 294.776 216.105C296.392 216.614 297.291 218.338 296.78 219.956ZM294.904 215.698C293.061 215.117 291.097 216.141 290.516 217.982C289.935 219.827 290.959 221.789 292.802 222.37C294.644 222.951 296.606 221.928 297.187 220.085C297.766 218.243 296.746 216.278 294.904 215.698ZM296.78 219.956C296.27 221.576 294.547 222.473 292.929 221.964C291.312 221.454 290.414 219.731 290.923 218.111C291.433 216.493 293.157 215.595 294.776 216.105C296.392 216.614 297.291 218.338 296.78 219.956Z" fill="#001054"/>
<path d="M293.078 226.199L290.375 225.348L289.922 227.308L292.326 228.066L293.078 226.199Z" fill="#001054"/>
<path d="M288.22 223.666L286.911 221.152L285.203 222.217L286.368 224.454L288.22 223.666Z" fill="#001054"/>
<path d="M286.575 218.442L287.427 215.738L285.467 215.285L284.709 217.69L286.575 218.442Z" fill="#001054"/>
<path d="M289.108 213.583L291.623 212.274L290.557 210.566L288.32 211.731L289.108 213.583Z" fill="#001054"/>
<path d="M294.334 211.936L297.037 212.789L297.491 210.828L295.087 210.07L294.334 211.936Z" fill="#001054"/>
<path d="M299.191 214.467L300.501 216.982L302.208 215.916L301.043 213.68L299.191 214.467Z" fill="#001054"/>
<path d="M300.838 219.695L299.986 222.399L301.947 222.853L302.705 220.448L300.838 219.695Z" fill="#001054"/>
<path d="M298.305 224.555L295.791 225.864L296.856 227.571L299.092 226.406L298.305 224.555Z" fill="#001054"/>
<path d="M89.3204 109.975C90.7699 104.027 87.1218 98.0289 81.1734 96.5794C75.2232 95.1299 69.2242 98.778 67.7747 104.726C66.3252 110.677 69.9733 116.676 75.9235 118.125C81.8728 119.574 87.871 115.926 89.3204 109.975ZM83.5789 108.577C82.9012 111.357 80.1019 113.06 77.3232 112.383C74.5427 111.705 72.8394 108.906 73.5172 106.125C74.194 103.346 76.9942 101.644 79.7747 102.322C82.5524 102.999 84.2557 105.798 83.5789 108.577Z" fill="#001054"/>
<path d="M78.1022 118.181L73.9596 117.172L73.4746 120.16L77.1585 121.058L78.1022 118.181Z" fill="#001054"/>
<path d="M70.5585 114.866L68.3429 111.223L65.8867 112.993L67.857 116.233L70.5585 114.866Z" fill="#001054"/>
<path d="M67.5678 107.182L68.5774 103.041L65.5891 102.555L64.6914 106.239L67.5678 107.182Z" fill="#001054"/>
<path d="M70.8843 99.6406L74.5268 97.425L72.7578 94.9688L69.5176 96.9399L70.8843 99.6406Z" fill="#001054"/>
<path d="M78.5645 96.6498L82.707 97.6594L83.193 94.6711L79.5082 93.7734L78.5645 96.6498Z" fill="#001054"/>
<path d="M86.1094 99.9644L88.3249 103.608L90.7812 101.838L88.8109 98.5977L86.1094 99.9644Z" fill="#001054"/>
<path d="M89.0994 107.648L88.0898 111.791L91.0781 112.276L91.9758 108.591L89.0994 107.648Z" fill="#001054"/>
<path d="M85.7831 115.191L82.1406 117.407L83.9106 119.863L87.1508 117.892L85.7831 115.191Z" fill="#001054"/>
<path d="M75.0952 109.383L78.42 111.204L81.6583 109.232L81.5709 105.445L78.248 103.625L75.0078 105.593L75.0952 109.383ZM78.6174 106.247C79.2641 106.404 79.658 107.052 79.5001 107.699C79.3431 108.343 78.6945 108.74 78.0478 108.582C77.4039 108.425 77.0081 107.773 77.1651 107.129C77.323 106.484 77.9735 106.09 78.6174 106.247Z" fill="#001054"/>
<path d="M339.895 224.603C337.367 220.752 335.945 216.422 335.945 211.844C335.945 195.68 353.695 182.574 375.578 182.574C397.46 182.574 415.194 195.681 415.194 211.844C415.194 228.007 397.46 241.114 375.578 241.114C364.967 241.114 355.348 238.04 348.241 233.016L334.59 236.487L339.895 224.603Z" fill="white"/>
<path d="M339.894 224.604C337.508 221.049 336.013 216.852 335.856 212.541C335.737 208.238 336.798 203.885 339.008 200.162C341.168 196.411 344.246 193.249 347.724 190.705C351.206 188.148 355.127 186.216 359.219 184.858C363.311 183.49 367.576 182.67 371.878 182.326C376.186 182.011 380.523 182.278 384.78 182.982C385.837 183.199 386.911 183.344 387.955 183.621L391.086 184.464L394.143 185.544C395.16 185.91 396.127 186.406 397.121 186.831C401.024 188.687 404.684 191.12 407.761 194.191C410.831 197.25 413.307 200.987 414.613 205.169C415.916 209.336 416.011 213.91 414.743 218.101C413.509 222.305 411.091 226.081 408.062 229.18C405.027 232.292 401.396 234.768 397.513 236.667C393.631 238.588 389.448 239.839 385.206 240.61C380.956 241.339 376.62 241.651 372.317 241.348C368.014 241.076 363.74 240.29 359.645 238.939C355.555 237.592 351.62 235.711 348.117 233.192L348.294 233.225L334.615 236.589L334.408 236.639L334.496 236.447L339.894 224.604ZM339.894 224.604L334.683 236.528L334.563 236.386L348.188 232.808L348.282 232.783L348.364 232.841C355.394 237.693 363.872 240.219 372.357 240.673C376.61 240.935 380.887 240.587 385.064 239.833C389.237 239.057 393.349 237.817 397.15 235.92C400.954 234.047 404.496 231.612 407.44 228.576C410.377 225.551 412.699 221.892 413.873 217.849C415.083 213.818 414.967 209.441 413.718 205.445C412.476 201.428 410.102 197.808 407.125 194.824C404.142 191.83 400.574 189.439 396.753 187.608C395.779 187.189 394.833 186.699 393.836 186.337L390.836 185.267L387.762 184.431C386.736 184.154 385.68 184.011 384.64 183.793C380.452 183.083 376.18 182.825 371.932 183.098C367.69 183.4 363.477 184.17 359.429 185.484C355.381 186.787 351.499 188.658 348.047 191.148C344.594 193.623 341.552 196.716 339.358 200.366C337.125 203.997 336.011 208.268 336.06 212.534C336.145 216.808 337.564 221.013 339.894 224.604Z" fill="#001054"/>
<path d="M355.189 216.64V218.816H346.32V206.043H355.028V208.22H348.804V211.296H354.182V213.311H348.804V216.639L355.189 216.64Z" fill="#001054"/>
<path d="M357.133 218.816V206.043H362.782C363.37 206.043 363.912 206.166 364.409 206.412C364.907 206.659 365.335 206.982 365.695 207.383C366.055 207.786 366.337 208.242 366.54 208.751C366.744 209.261 366.846 209.774 366.846 210.289C366.846 211.116 366.639 211.869 366.225 212.547C365.813 213.225 365.252 213.713 364.544 214.012L367.459 218.816H364.67L362.062 214.534H359.615V218.816H357.133ZM359.615 212.357H362.728C362.955 212.357 363.169 212.303 363.366 212.195C363.564 212.087 363.734 211.941 363.879 211.754C364.023 211.569 364.137 211.35 364.22 211.098C364.305 210.846 364.347 210.577 364.347 210.289C364.347 209.989 364.298 209.714 364.203 209.462C364.107 209.21 363.979 208.992 363.816 208.806C363.655 208.62 363.468 208.476 363.259 208.373C363.048 208.272 362.836 208.22 362.62 208.22H359.616V212.357H359.615Z" fill="#001054"/>
<path d="M369.094 218.816V206.043H374.743C375.331 206.043 375.873 206.166 376.37 206.412C376.868 206.659 377.296 206.982 377.656 207.383C378.016 207.786 378.298 208.242 378.501 208.751C378.705 209.261 378.807 209.774 378.807 210.289C378.807 211.116 378.6 211.869 378.186 212.547C377.774 213.225 377.213 213.713 376.505 214.012L379.419 218.816H376.63L374.021 214.534H371.575V218.816H369.094ZM371.577 212.357H374.689C374.916 212.357 375.13 212.303 375.327 212.195C375.525 212.087 375.695 211.941 375.84 211.754C375.984 211.569 376.098 211.35 376.181 211.098C376.266 210.846 376.308 210.577 376.308 210.289C376.308 209.989 376.259 209.714 376.164 209.462C376.068 209.21 375.94 208.992 375.777 208.806C375.615 208.62 375.429 208.476 375.22 208.373C375.009 208.272 374.797 208.22 374.581 208.22H371.577V212.357Z" fill="#001054"/>
<path d="M386.509 218.904C385.574 218.904 384.726 218.722 383.963 218.356C383.201 217.991 382.548 217.505 382.003 216.899C381.456 216.294 381.034 215.601 380.734 214.822C380.435 214.043 380.285 213.245 380.285 212.43C380.285 211.578 380.444 210.763 380.762 209.983C381.079 209.204 381.518 208.514 382.074 207.914C382.632 207.314 383.295 206.838 384.062 206.484C384.829 206.131 385.663 205.953 386.562 205.953C387.486 205.953 388.328 206.142 389.09 206.52C389.852 206.898 390.503 207.392 391.042 208.004C391.581 208.615 392.001 209.312 392.301 210.091C392.601 210.871 392.751 211.662 392.751 212.465C392.751 213.317 392.594 214.129 392.283 214.903C391.971 215.676 391.539 216.36 390.988 216.954C390.436 217.548 389.776 218.022 389.009 218.375C388.241 218.728 387.408 218.904 386.509 218.904ZM382.802 212.429C382.802 212.981 382.886 213.514 383.054 214.03C383.223 214.546 383.466 215.002 383.783 215.397C384.101 215.793 384.491 216.111 384.952 216.35C385.414 216.59 385.938 216.71 386.527 216.71C387.126 216.71 387.657 216.588 388.118 216.342C388.58 216.097 388.969 215.77 389.288 215.362C389.605 214.954 389.845 214.495 390.008 213.985C390.169 213.476 390.25 212.957 390.25 212.43C390.25 211.879 390.163 211.345 389.99 210.829C389.816 210.314 389.57 209.857 389.253 209.461C388.934 209.065 388.545 208.751 388.083 208.517C387.622 208.283 387.103 208.166 386.528 208.166C385.927 208.166 385.394 208.289 384.927 208.535C384.459 208.782 384.069 209.105 383.758 209.506C383.445 209.909 383.209 210.365 383.047 210.874C382.883 211.383 382.802 211.901 382.802 212.429Z" fill="#001054"/>
<path d="M394.658 218.816V206.043H400.308C400.895 206.043 401.437 206.166 401.935 206.412C402.432 206.659 402.861 206.982 403.221 207.383C403.581 207.786 403.863 208.242 404.066 208.751C404.27 209.261 404.371 209.774 404.371 210.289C404.371 211.116 404.164 211.869 403.751 212.547C403.338 213.225 402.777 213.713 402.069 214.012L404.984 218.816H402.195L399.588 214.534H397.141V218.816H394.658ZM397.141 212.357H400.253C400.481 212.357 400.694 212.303 400.891 212.195C401.09 212.087 401.261 211.941 401.405 211.754C401.548 211.569 401.662 211.35 401.746 211.098C401.83 210.846 401.873 210.577 401.873 210.289C401.873 209.989 401.824 209.714 401.729 209.462C401.632 209.21 401.504 208.992 401.342 208.806C401.18 208.62 400.994 208.476 400.784 208.373C400.574 208.272 400.361 208.22 400.145 208.22H397.142V212.357H397.141Z" fill="#001054"/>
</svg>
