<?xml version="1.0" standalone="no"?>
<!DOCTYPE svg PUBLIC "-//W3C//DTD SVG 20010904//EN"
 "http://www.w3.org/TR/2001/REC-SVG-20010904/DTD/svg10.dtd">
<svg version="1.0" xmlns="http://www.w3.org/2000/svg"
 width="2177.000000pt" height="2177.000000pt" viewBox="0 0 2177.000000 2177.000000"
 preserveAspectRatio="xMidYMid meet">
<metadata>
Created by potrace 1.14, written by Peter Selinger 2001-2017
</metadata>
<g transform="translate(0.000000,2177.000000) scale(0.100000,-0.100000)"
fill="#000000" stroke="none">
<path d="M16280 20941 c-25 -26 -67 -65 -93 -87 -27 -21 -55 -45 -62 -51 -8
-7 -17 -13 -22 -13 -4 0 -20 -11 -34 -24 -14 -13 -36 -29 -49 -36 -13 -7 -29
-17 -34 -21 -23 -19 -305 -199 -312 -199 -2 0 -21 -11 -42 -24 -47 -29 -372
-216 -377 -216 -2 0 -42 -22 -89 -50 -47 -27 -86 -46 -86 -43 0 3 -8 -1 -17
-9 -10 -8 -63 -39 -118 -68 -55 -29 -143 -76 -195 -103 -335 -179 -1570 -800
-1570 -791 0 3 -13 -4 -29 -15 -16 -12 -31 -21 -34 -21 -3 0 -97 -44 -209 -99
-112 -54 -250 -121 -308 -149 -58 -27 -181 -87 -275 -132 -93 -45 -197 -95
-230 -110 -33 -15 -107 -50 -165 -78 -138 -66 -290 -138 -365 -172 -33 -15
-109 -51 -170 -80 -60 -29 -240 -113 -400 -187 -159 -75 -324 -151 -365 -170
-41 -20 -246 -114 -455 -210 -209 -96 -411 -189 -450 -208 -38 -18 -117 -54
-175 -80 -157 -70 -187 -84 -278 -127 -46 -21 -248 -113 -450 -204 -202 -92
-445 -202 -541 -245 -95 -44 -175 -79 -177 -79 -2 0 -47 -21 -101 -46 -54 -25
-129 -59 -168 -76 -83 -36 -138 -60 -225 -100 -36 -17 -110 -50 -165 -74 -55
-25 -109 -49 -120 -54 -116 -53 -170 -77 -290 -130 -77 -34 -160 -71 -185 -82
-25 -12 -61 -28 -80 -36 -19 -8 -43 -19 -54 -24 -10 -6 -75 -34 -144 -64 -183
-80 -457 -202 -532 -236 -36 -17 -69 -31 -75 -33 -5 -1 -45 -18 -88 -39 -43
-20 -80 -36 -83 -36 -3 0 -39 -16 -80 -35 -41 -19 -80 -35 -87 -35 -7 0 -17
-4 -23 -9 -5 -5 -43 -23 -84 -41 -174 -74 -371 -184 -475 -265 -11 -8 -45 -34
-75 -57 -30 -23 -58 -46 -62 -52 -4 -6 -8 -8 -8 -4 0 9 -98 -80 -203 -186
-249 -253 -461 -587 -579 -916 -22 -62 -67 -206 -73 -233 -2 -10 -7 -27 -10
-37 -13 -41 -54 -269 -62 -350 -14 -122 -8 -661 8 -745 4 -22 9 -53 12 -70 15
-97 64 -228 125 -339 113 -204 279 -363 487 -466 143 -70 207 -88 338 -95 62
-3 146 -8 187 -10 66 -4 142 -8 390 -20 235 -12 313 -16 375 -20 39 -2 129 -7
200 -10 72 -4 154 -8 182 -10 31 -1 53 1 53 7 0 7 4 7 13 0 6 -5 68 -13 137
-16 69 -4 161 -9 205 -11 44 -2 132 -7 195 -11 63 -3 144 -8 180 -9 79 -3 308
-14 410 -20 107 -6 248 -14 370 -20 58 -3 143 -7 190 -10 47 -3 137 -7 200
-10 63 -3 144 -8 180 -10 120 -8 374 -18 452 -19 43 -1 78 -3 78 -6 0 -3 21
-5 48 -6 26 0 103 -4 172 -8 69 -4 134 -7 145 -6 31 2 36 2 100 -4 33 -3 113
-8 178 -11 101 -4 117 -3 117 11 0 9 5 12 12 8 7 -5 9 -2 5 9 -4 11 -2 14 8
10 8 -3 12 -10 8 -17 -8 -13 26 12 45 34 12 13 13 13 7 0 -4 -10 -2 -10 8 2 9
12 17 14 24 7 8 -8 13 -7 18 2 6 8 4 10 -5 4 -9 -6 -11 -4 -5 4 4 8 20 11 37
9 18 -3 27 -1 25 6 -3 6 7 11 23 11 16 0 26 -4 23 -10 -2 -5 2 -2 10 8 15 18
33 24 22 8 -10 -16 12 -21 25 -6 7 8 17 12 23 8 7 -4 8 1 4 13 -6 17 -6 17 6
2 12 -15 14 -15 23 0 9 13 12 13 19 2 5 -8 4 -11 -2 -7 -6 4 -14 0 -17 -9 -3
-8 -10 -12 -16 -9 -5 3 -10 3 -10 -2 0 -12 -51 -33 -63 -26 -6 3 -7 2 -4 -4 3
-5 -24 -25 -61 -44 -37 -19 -69 -36 -72 -39 -3 -3 -36 -21 -75 -41 -69 -35
-582 -305 -720 -379 -38 -20 -124 -66 -190 -100 -66 -35 -150 -80 -187 -101
-38 -21 -68 -36 -68 -34 0 2 -26 -11 -57 -29 -32 -18 -121 -66 -198 -106 -77
-40 -171 -89 -210 -110 -38 -21 -110 -59 -160 -85 -49 -26 -135 -71 -190 -100
-55 -29 -138 -73 -185 -98 -211 -111 -311 -163 -384 -204 -43 -24 -82 -43 -87
-43 -5 0 -9 -4 -9 -10 0 -5 -6 -10 -13 -10 -7 0 -22 -7 -32 -15 -11 -8 -45
-31 -75 -51 -74 -50 -207 -150 -249 -188 -279 -256 -457 -482 -605 -770 -46
-90 -63 -126 -111 -241 -22 -52 -84 -242 -101 -310 -22 -87 -41 -185 -49 -250
-3 -27 -8 -60 -11 -72 -22 -109 -22 -510 0 -643 3 -14 10 -59 16 -100 6 -41
18 -100 25 -130 8 -30 16 -73 20 -95 12 -81 16 -98 45 -181 93 -269 258 -477
490 -620 60 -38 217 -110 257 -119 72 -17 294 -61 353 -71 19 -3 37 -7 40 -9
3 -2 26 -6 50 -10 25 -3 63 -10 85 -15 22 -5 54 -11 70 -14 17 -3 41 -8 55
-11 14 -3 41 -8 60 -11 19 -3 51 -9 70 -14 19 -5 51 -12 70 -14 40 -6 64 -10
170 -32 41 -9 86 -18 100 -20 22 -4 46 -9 150 -29 14 -3 39 -8 55 -10 17 -3
62 -12 102 -20 39 -8 89 -18 110 -21 21 -3 40 -7 43 -9 3 -2 25 -6 50 -10 25
-4 47 -8 50 -10 4 -2 29 -7 56 -11 27 -3 52 -8 56 -10 4 -3 26 -7 50 -10 24
-3 86 -15 138 -26 52 -12 105 -22 117 -23 11 -2 29 -5 40 -9 10 -3 38 -8 63
-11 25 -4 65 -11 90 -17 61 -13 184 -37 280 -54 14 -3 59 -12 100 -20 81 -17
88 -18 140 -28 19 -3 46 -8 60 -11 14 -3 36 -7 50 -10 14 -3 36 -7 50 -10 14
-3 39 -8 55 -11 17 -3 111 -21 210 -40 99 -20 194 -37 210 -39 17 -2 49 -8 73
-13 38 -9 41 -8 30 6 -11 13 -10 14 9 4 16 -9 24 -9 29 0 5 7 3 8 -6 3 -9 -5
-11 -4 -6 4 6 9 11 9 21 1 14 -12 31 3 21 18 -3 5 0 9 7 10 38 4 53 8 60 20 7
11 11 11 25 0 13 -11 14 -11 7 1 -6 11 -4 13 8 8 10 -4 20 0 26 11 8 13 10 14
11 2 0 -10 5 -8 15 7 10 14 23 20 36 18 11 -2 22 2 26 10 7 19 20 19 20 0 0
-8 -4 -12 -9 -9 -4 3 -11 -2 -14 -10 -3 -8 -25 -26 -47 -39 -23 -13 -213 -125
-422 -249 -209 -124 -396 -235 -415 -245 -19 -11 -82 -48 -140 -83 -188 -112
-264 -157 -300 -178 -405 -231 -566 -347 -775 -556 -399 -400 -641 -876 -720
-1416 -24 -164 -24 -585 0 -708 2 -10 6 -44 9 -74 6 -55 24 -168 51 -313 4
-16 15 -66 26 -110 12 -44 23 -89 25 -99 2 -11 12 -47 23 -80 10 -34 31 -101
46 -151 67 -223 138 -417 160 -435 11 -10 23 -4 57 28 202 188 743 572 1185
841 23 14 93 57 155 96 62 38 122 75 133 81 11 6 96 57 189 114 93 56 278 164
410 241 133 77 248 144 256 149 106 64 872 495 1055 595 33 18 125 68 205 112
156 86 228 126 330 181 36 19 142 76 235 127 94 51 208 113 255 137 47 25 144
77 215 115 148 80 283 151 435 230 58 31 150 79 205 108 55 29 183 96 284 149
301 157 458 270 676 490 316 318 540 706 661 1146 9 30 17 64 20 75 2 11 8 43
14 70 6 28 13 61 15 75 3 14 8 45 11 70 3 25 8 56 10 70 18 128 23 364 10 515
-11 136 -16 177 -32 260 -2 11 -6 32 -9 47 -19 103 -97 369 -131 445 -8 17
-14 35 -14 41 0 19 -92 187 -135 247 -44 61 -141 166 -205 220 -114 98 -338
207 -473 231 -17 3 -33 6 -36 8 -3 2 -31 7 -61 10 -61 7 -108 15 -130 21 -8 3
-33 7 -55 11 -22 3 -60 10 -85 16 -25 5 -58 12 -75 15 -16 2 -120 22 -230 45
-110 22 -211 41 -225 43 -14 2 -72 14 -130 25 -58 12 -114 24 -125 26 -11 2
-45 8 -75 14 -30 6 -66 12 -80 15 -49 10 -135 26 -160 31 -14 3 -59 12 -100
20 -41 9 -88 18 -105 21 -16 2 -46 8 -65 13 -20 5 -51 12 -70 14 -19 3 -46 8
-60 11 -14 2 -47 9 -75 15 -27 5 -61 12 -75 15 -14 3 -41 8 -60 11 -19 3 -100
19 -180 35 -80 16 -157 32 -172 34 -32 6 -224 44 -253 51 -11 2 -36 7 -55 10
-19 3 -41 7 -49 10 -8 2 -30 7 -50 10 -31 4 -164 31 -196 38 -5 2 -31 6 -57
11 -27 4 -48 11 -48 15 0 4 28 23 63 40 82 43 568 298 588 309 9 5 141 75 295
156 153 81 315 166 359 190 44 23 168 88 275 145 107 56 236 124 285 150 50
26 216 114 370 195 154 81 314 165 355 187 41 22 122 65 180 96 899 473 942
496 1091 603 289 206 556 501 729 804 70 122 199 410 215 480 2 6 14 48 28 95
38 128 57 212 73 319 4 25 8 53 9 62 19 107 26 442 11 593 -4 44 -9 82 -10 85
-2 3 -7 31 -10 61 -4 30 -8 62 -10 70 -1 8 -6 33 -10 55 -4 22 -12 51 -16 65
-5 14 -12 37 -14 52 -2 15 -17 67 -32 115 -15 48 -29 94 -30 102 -6 31 -67
139 -114 202 -61 81 -187 203 -268 258 -127 86 -323 168 -422 176 -25 2 -99 6
-165 10 -120 6 -161 8 -370 20 -128 8 -199 12 -350 19 -60 3 -148 8 -195 11
-47 2 -132 7 -190 10 -58 3 -132 7 -165 10 -33 2 -116 6 -185 10 -69 3 -154 8
-190 10 -36 3 -112 7 -170 10 -58 3 -143 7 -190 10 -47 3 -130 7 -185 10 -55
3 -136 7 -180 10 -76 5 -117 7 -360 20 -55 3 -136 8 -180 10 -44 3 -123 7
-175 10 -52 3 -135 7 -185 10 -49 3 -130 8 -180 10 -49 3 -128 7 -175 10 -47
2 -132 7 -190 10 -329 18 -507 29 -544 34 -10 1 11 11 389 196 452 221 701
343 1015 498 168 82 384 187 480 233 96 47 183 89 193 94 9 6 25 14 35 20 9 5
143 71 297 146 154 75 395 193 535 262 264 129 594 291 1050 514 146 72 348
171 450 220 328 160 493 244 565 288 65 39 205 135 243 165 115 91 213 179
285 255 89 93 237 272 258 313 7 12 15 24 18 27 16 12 114 176 167 279 62 119
168 390 190 484 2 9 6 26 9 38 2 11 7 29 10 39 3 10 8 27 10 37 2 10 8 38 14
63 5 25 13 68 17 95 3 28 8 59 10 70 26 132 25 638 -1 717 -2 7 -6 32 -9 55
-3 22 -8 52 -10 65 -3 12 -8 34 -10 48 -21 111 -72 280 -133 440 -4 8 -7 17
-8 20 -1 3 -5 14 -10 25 -59 152 -125 332 -125 341 0 6 -6 16 -13 22 -9 8 -24
-1 -57 -37z m-6299 -9204 c-10 -9 -11 -8 -5 6 3 10 9 15 12 12 3 -3 0 -11 -7
-18z m469 -5947 c0 -5 -2 -10 -4 -10 -3 0 -8 5 -11 10 -3 6 -1 10 4 10 6 0 11
-4 11 -10z"/>
<path d="M10494 5799 c-3 -6 -3 -13 0 -16 3 -4 6 -1 6 5 0 6 7 9 15 6 8 -4 15
-4 15 -1 0 11 -30 16 -36 6z"/>
</g>
</svg>
